<?xml version="1.0" encoding="UTF-8" standalone="no"?>
<!DOCTYPE svg PUBLIC "-//W3C//DTD SVG 1.1//EN" "http://www.w3.org/Graphics/SVG/1.1/DTD/svg11.dtd">
<svg width="100%" height="100%" viewBox="0 0 497 688" version="1.1" xmlns="http://www.w3.org/2000/svg" xmlns:xlink="http://www.w3.org/1999/xlink" xml:space="preserve" xmlns:serif="http://www.serif.com/" style="fill-rule:evenodd;clip-rule:evenodd;stroke-miterlimit:10;">
    <g transform="matrix(1,0,0,1,-7837.72,-166)">
        <g transform="matrix(1,0,0,1,6480,0)">
            <g transform="matrix(-0.174605,0.984639,0.984639,0.174605,1728.24,682.747)">
                <path d="M-73.285,-212.542L172.189,-212.542C172.189,-212.542 146.123,-209.546 132.006,-141.891C117.89,-74.236 117.541,-42.992 131.7,-33.312C145.86,-23.632 181.207,-78.572 183.505,-146.399" style="fill:none;fill-rule:nonzero;stroke:rgb(161,159,162);stroke-width:2.7px;"/>
            </g>
        </g>
        <g transform="matrix(1,0,0,1,6480,0)">
            <g transform="matrix(-0.0279625,0.999609,0.999609,0.0279625,1691.87,713.067)">
                <path d="M-135.947,-132.197L128.551,-132.197" style="fill:none;fill-rule:nonzero;stroke:rgb(161,159,162);stroke-width:2.7px;"/>
            </g>
        </g>
        <g transform="matrix(1,0,0,1,6480,0)">
            <g transform="matrix(0.283599,0.958943,0.958943,-0.283599,1725.11,621.463)">
                <path d="M-82.831,-110.874L148.411,-110.874" style="fill:none;fill-rule:nonzero;stroke:rgb(161,159,162);stroke-width:2.7px;"/>
            </g>
        </g>
        <g transform="matrix(1,0,0,1,6480,0)">
            <g transform="matrix(0.265241,0.964182,0.964182,-0.265241,1702.67,624.418)">
                <path d="M-82.681,-108.498L142.375,-108.498" style="fill:none;fill-rule:nonzero;stroke:rgb(161,159,162);stroke-width:2.7px;"/>
            </g>
        </g>
        <g transform="matrix(1,0,0,1,6480,0)">
            <g transform="matrix(0.952178,0.305545,0.305545,-0.952178,1506.69,672.674)">
                <path d="M-3.6,-10.922C-3.6,-10.922 -4.697,-46.903 78.551,-10.922" style="fill:none;fill-rule:nonzero;stroke:rgb(161,159,162);stroke-width:2.7px;"/>
            </g>
        </g>
        <g transform="matrix(1,0,0,1,6480,0)">
            <g transform="matrix(54.1077,0,0,-54.1077,1429.62,365.824)">
                <path d="M0.001,0.514C-0.007,0.5 0.059,0.157 0.059,0.148C0.059,0.138 0.239,-0.146 0.239,-0.146C0.239,-0.146 0.551,-0.265 0.609,-0.307C0.667,-0.349 0.837,-0.526 0.837,-0.526L1,-0.333C1,-0.333 0.779,-0.14 0.764,-0.081C0.748,-0.022 0.705,0.046 0.599,0.065C0.521,0.078 0.44,0.138 0.382,0.184C0.363,0.201 0.345,0.215 0.332,0.226C0.331,0.227 0.331,0.227 0.33,0.228C0.317,0.239 0.302,0.251 0.288,0.262C0.269,0.277 0.25,0.291 0.232,0.301C0.229,0.303 0.225,0.305 0.222,0.306C0.205,0.315 0.191,0.318 0.182,0.313C0.154,0.299 0.364,0.082 0.357,0.059C0.35,0.036 0.18,0.115 0.147,0.178C0.136,0.2 0.128,0.236 0.12,0.276C0.105,0.354 0.106,0.451 0.076,0.486C0.05,0.516 0.031,0.526 0.019,0.526C0.01,0.526 0.004,0.52 0.001,0.514Z" style="fill:url(#_Linear1);fill-rule:nonzero;"/>
            </g>
        </g>
        <g transform="matrix(1,0,0,1,6480,0)">
            <g transform="matrix(12.8173,0,0,-12.8173,1436.13,351.318)">
                <path d="M0.271,0.653C0.173,0.575 0.063,0.247 0,0.033C0.031,-0.137 0.066,-0.289 0.113,-0.379C0.252,-0.645 0.969,-0.98 0.999,-0.881C1.029,-0.784 0.143,0.131 0.261,0.191C0.301,0.211 0.359,0.197 0.43,0.162L0.467,0.191C0.455,0.302 0.393,0.436 0.606,0.593C0.775,0.718 0.839,1.013 0.763,1.058C0.759,1.06 0.753,1.062 0.747,1.062C0.655,1.062 0.409,0.764 0.271,0.653Z" style="fill:url(#_Linear2);fill-rule:nonzero;"/>
            </g>
        </g>
        <g transform="matrix(1,0,0,1,6480,0)">
            <g transform="matrix(10.1809,0,0,-10.1809,1441.63,346.915)">
                <path d="M-0,-0.228C0.041,-0.259 0.056,-0.258 0.056,-0.258C0.147,-0.31 0.25,-0.385 0.351,-0.464C0.351,-0.464 0.729,-0.143 0.903,-0.032C1.076,0.081 0.98,0.435 0.903,0.463C0.902,0.464 0.9,0.464 0.898,0.464C0.795,0.464 -0,-0.228 -0,-0.228Z" style="fill:url(#_Linear3);fill-rule:nonzero;"/>
            </g>
        </g>
        <g transform="matrix(1,0,0,1,6480,0)">
            <g transform="matrix(-4.21919,5.00453,5.00453,4.21919,1454.41,348.632)">
                <path d="M1.25,-0.334C1.25,-0.326 1.249,-0.319 1.25,-0.311C1.249,-0.166 1.249,0.02 1.25,0.23C0.131,0.41 -0.014,-0.165 0.041,-0.229C0.095,-0.294 1.25,-0.334 1.25,-0.334Z" style="fill:url(#_Linear4);fill-rule:nonzero;"/>
            </g>
        </g>
        <g transform="matrix(1,0,0,1,6480,0)">
            <g transform="matrix(1,0,0,1,1442.26,682.301)">
                <path d="M0,-70.071L-15.128,-53.935L-17.669,49.94L-23.216,49.133L-54.136,44.616L-62.789,43.365C-62.789,43.365 -63.535,-70.333 -64.06,-79.672C-64.544,-88.99 -28.238,-120.011 -28.238,-120.011L0,-70.071Z" style="fill:rgb(0,51,78);fill-rule:nonzero;"/>
            </g>
        </g>
        <g transform="matrix(1,0,0,1,6480,0)">
            <g transform="matrix(1,0,0,1,1605.54,564.084)">
                <path d="M0,-44.394C-4.034,-14.139 -31.586,-3.389 -71.26,-1.373C-110.935,0.645 -133.787,-1.373 -133.787,-1.373L-110.935,52.421C-110.935,52.421 -113.032,53.429 -116.461,54.801C-122.593,57.302 -133.041,61.013 -143.388,62.425C-149.479,63.273 -155.53,63.313 -160.674,61.84C-174.793,34.268 -205.733,-5.406 -207.75,-25.576C-209.767,-45.746 -176.81,-60.531 -135.804,-67.933C-94.799,-75.315 -80.68,-76 -80.68,-76L-79.994,-96.836L-21.501,-107.707C-21.501,-107.707 4.034,-74.65 0,-44.394" style="fill:rgb(0,51,78);fill-rule:nonzero;"/>
            </g>
        </g>
        <g transform="matrix(1,0,0,1,6480,0)">
            <g transform="matrix(59.413,0,0,-59.413,1462.15,663.715)">
                <path d="M0,0.626C0.087,0.497 0.344,0.259 0.375,0.139C0.415,-0.015 0.51,-0.158 0.555,-0.252C0.598,-0.342 0.712,-0.636 0.729,-0.657C0.73,-0.658 0.73,-0.659 0.73,-0.659C0.73,-0.659 0.737,-0.733 0.827,-0.741C0.916,-0.748 0.975,-0.626 0.997,-0.483C1.019,-0.34 0.908,-0.106 0.837,0.113C0.766,0.332 0.7,0.373 0.7,0.373L0.641,0.373L0.453,0.755C0.35,0.712 0.174,0.65 0,0.626Z" style="fill:url(#_Linear5);fill-rule:nonzero;"/>
            </g>
        </g>
        <g transform="matrix(1,0,0,1,6480,0)">
            <g transform="matrix(1,0,0,1,1524.48,713.524)">
                <path d="M0,-56.235C0,-56.235 -4.397,-42.419 1.774,-32.131C7.946,-21.845 11.032,-18.154 8.814,-11.84C6.615,-5.528 -3.228,10.346 -12.183,14.178C-21.158,17.991 -20.573,7.119 -20.13,2.117C-19.868,-0.888 -19.384,-6.657 -19.041,-10.772C-18.98,-10.712 -18.96,-10.671 -18.96,-10.671C-18.96,-10.671 -18.517,-6.254 -13.212,-5.81C-7.927,-5.386 -4.397,-12.588 -3.086,-21.099C-1.755,-29.631 -8.371,-43.507 -12.606,-56.517C-16.842,-69.527 -20.715,-71.947 -20.715,-71.947L-20.916,-71.947C-18.396,-73.016 -14.079,-74.226 -9.399,-72.835C-2.058,-70.636 1.331,-63.577 6.172,-60.048C11.032,-56.517 19.544,-48.288 19.544,-48.288L18.375,-44.476L0,-56.235Z" style="fill:rgb(20,83,116);fill-rule:nonzero;"/>
            </g>
        </g>
        <g transform="matrix(1,0,0,1,6480,0)">
            <g transform="matrix(49.2776,0,0,-49.2776,1374.49,775.715)">
                <path d="M0.335,0.247C0.321,0.073 0.216,-0.171 0.183,-0.4C0.164,-0.54 0.12,-0.672 0.077,-0.756C0.049,-0.809 0.022,-0.844 0,-0.849C0.055,-0.945 0.312,-0.891 0.399,-0.812C0.486,-0.735 0.743,-0.367 0.807,-0.262C0.871,-0.157 1.009,0.035 1,0.088C0.997,0.104 0.986,0.13 0.973,0.161L0.972,0.161C0.939,0.235 0.89,0.339 0.89,0.416C0.89,0.494 0.899,0.752 0.904,0.899L0.277,0.99C0.298,0.806 0.345,0.382 0.335,0.247Z" style="fill:url(#_Linear6);fill-rule:nonzero;"/>
            </g>
        </g>
        <g transform="matrix(1,0,0,1,6480,0)">
            <g transform="matrix(1,0,0,1,1428.95,806.89)">
                <path d="M0,-8.775C-0.907,-4.7 -3.389,17.89 -3.389,17.89L-7.463,17.89L-7.463,-8.088C-7.463,-8.088 -16.721,-4.922 -21.683,2.763C-26.664,10.427 -30.053,23.759 -32.534,25.353C-35.015,26.926 -64.402,30.315 -69.828,25.353C-75.233,20.371 -63.495,13.371 -59.884,11.334C-57.867,10.205 -53.874,7.906 -50.687,6.09C-52.038,8.712 -53.39,10.407 -54.458,10.669C-51.735,15.41 -39.089,12.706 -34.793,8.854C-30.497,5.022 -17.85,-13.071 -14.684,-18.254C-11.517,-23.459 -4.739,-32.898 -5.203,-35.52C-5.345,-36.306 -5.869,-37.557 -6.535,-39.09C-6.091,-38.727 0.948,-32.716 2.037,-25.939C3.167,-18.94 0.908,-12.829 0,-8.775" style="fill:rgb(20,83,116);fill-rule:nonzero;"/>
            </g>
        </g>
        <g transform="matrix(1,0,0,1,6480,0)">
            <g transform="matrix(-0.949799,0.312861,0.312861,0.949799,1590.01,270.807)">
                <path d="M52.24,-79.081C14.675,-94.992 -9.941,-51.706 -11.895,-16.378C-14.172,24.818 51.161,22.519 52.24,22.929C53.241,23.309 66.057,11.205 76.886,11.568C103.083,-22.711 85.01,-63.495 52.24,-79.081" style="fill:rgb(20,19,48);fill-rule:nonzero;"/>
            </g>
        </g>
        <g transform="matrix(1,0,0,1,6480,0)">
            <g transform="matrix(1,0,0,1,1590.39,316.287)">
                <path d="M0,146.255L-7.706,124.992C-7.706,124.992 11.455,62.718 6.161,34.228C0.866,5.737 -17.791,-10.146 -17.791,-10.146L-43.807,-4.525C-53.243,-2.487 -61.27,3.656 -65.706,12.231C-73.676,27.635 -85.705,51.321 -87.041,56.498C-89.058,64.315 -69.505,156.401 -69.505,156.401L-62.921,155.499" style="fill:rgb(238,111,87);fill-rule:nonzero;"/>
            </g>
        </g>
        <g transform="matrix(1,0,0,1,6480,0)">
            <g transform="matrix(88.5312,0,0,-88.5312,1431.67,476.106)">
                <path d="M0.555,-0.028L0.28,-0.062C0.261,-0.062 0.242,-0.069 0.227,-0.082C0.186,-0.118 0.104,-0.189 0.1,-0.192C0.096,-0.195 0.04,-0.25 0.004,-0.285C-0.005,-0.294 0.003,-0.309 0.015,-0.306C0.053,-0.296 0.108,-0.277 0.135,-0.241C0.178,-0.182 0.24,-0.17 0.246,-0.17C0.252,-0.17 0.331,-0.154 0.326,-0.177C0.32,-0.2 0.238,-0.215 0.233,-0.221C0.227,-0.226 0.139,-0.255 0.157,-0.289C0.174,-0.323 0.336,-0.244 0.373,-0.237C0.39,-0.234 0.412,-0.237 0.433,-0.24C0.458,-0.244 0.484,-0.248 0.504,-0.242C0.542,-0.23 1,0.086 1,0.086L0.958,0.34L0.555,-0.028Z" style="fill:url(#_Linear7);fill-rule:nonzero;"/>
            </g>
        </g>
        <g transform="matrix(1,0,0,1,6480,0)">
            <g transform="matrix(1,0,0,1,1495.13,556.47)">
                <path d="M0,7.12L0,17.007L140.696,17.007C140.696,2.154 128.656,-9.887 113.804,-9.887L93.811,-9.887L0,7.12Z" style="fill:rgb(3,101,135);fill-rule:nonzero;"/>
            </g>
        </g>
        <g transform="matrix(1,0,0,1,6480,0)">
            <g opacity="0.22">
                <g transform="matrix(-0.426895,0.904301,0.904301,0.426895,1563.97,424.881)">
                    <path d="M-74.865,-38.292L-73.637,-38.292L8.061,-38.316L8.357,-54.957L17.359,-32.812" style="fill-rule:nonzero;"/>
                </g>
            </g>
        </g>
        <g transform="matrix(1,0,0,1,6480,0)">
            <g opacity="0.22">
                <g transform="matrix(-0.790956,-0.611873,-0.611873,0.790956,1496.31,432.755)">
                    <path d="M-31.636,-112.866C-31.636,-112.866 -58.287,-12.531 -47.289,-1.473C-43.594,1.441 -31.636,1.857 -31.636,1.857C-31.636,1.857 -40.986,8.932 -50.235,0.074C-66.152,-15.17 -31.636,-112.866 -31.636,-112.866" style="fill-rule:nonzero;"/>
                </g>
            </g>
        </g>
        <g transform="matrix(1,0,0,1,6480,0)">
            <g transform="matrix(-101.67,-47.0612,47.0612,-101.67,1626.24,245.726)">
                <path d="M0.947,0.156C1.081,0.082 1.167,-0.117 1.083,-0.264C1.074,-0.279 1.065,-0.294 1.055,-0.308C1.072,-0.218 0.977,-0.064 0.815,-0.007C0.815,-0.007 0.807,-0.025 0.775,-0.017C0.763,-0.014 0.756,-0.006 0.751,0.001C0.743,0.013 0.74,0.023 0.727,0.005C0.706,-0.023 0.686,-0.065 0.651,-0.048C0.615,-0.032 0.582,-0.044 0.568,-0.065C0.555,-0.086 0.577,-0.196 0.538,-0.202C0.493,-0.209 0.428,-0.283 0.428,-0.283C0.428,-0.283 0.493,-0.071 0.332,-0.138C0.315,-0.156 0.298,-0.175 0.283,-0.194C0.293,-0.16 0.312,-0.14 0.336,-0.132C0.343,-0.13 0.35,-0.129 0.357,-0.129C0.357,-0.129 0.366,-0.043 0.407,0.046C0.421,0.077 0.439,0.108 0.462,0.135C0.571,0.268 0.777,0.236 0.913,0.173C0.925,0.167 0.936,0.162 0.947,0.156Z" style="fill:url(#_Linear8);fill-rule:nonzero;"/>
            </g>
        </g>
        <g transform="matrix(1,0,0,1,6480,0)">
            <g transform="matrix(-43.0069,27.0679,27.0679,43.0069,1580.6,278.949)">
                <path d="M0.946,-0.156L0.977,-0.111L1.003,-0.074C0.778,0.03 0.443,0.117 0.03,-0.055C0.025,-0.062 0.02,-0.068 0.016,-0.074C-0.017,-0.117 -0.075,-0.187 -0.081,-0.189C-0.084,-0.19 -0.088,-0.191 -0.091,-0.192C0.376,-0.076 0.706,-0.088 0.946,-0.156Z" style="fill:url(#_Linear9);fill-rule:nonzero;"/>
            </g>
        </g>
        <g transform="matrix(1,0,0,1,6480,0)">
            <g transform="matrix(1,0,0,1,1629.32,195.995)">
                <path d="M0,82.512C3.844,78.077 2.134,71.788 -0.822,67.703C-3.778,63.618 3.263,51.605 -1.037,46.874C-10.175,36.823 -5.421,32.71 -5.988,29.052C-8.229,14.631 -15.106,19.55 -14.623,12.321C-14.126,5.091 -20.388,2.498 -22.242,0.63C-27.053,-4.248 -26.798,-6.466 -28.114,-11.719C-30.467,-21.126 -45.865,-21.086 -54.667,-21.26C-63.374,-21.435 -60.915,-33.771 -81.368,-28.826C-84.633,-28.033 -89.053,-21.12 -99.939,-23.37C-111.415,-25.742 -124.423,-14.784 -123.657,-9.328C-122.892,-3.858 -137.955,-3.509 -139.07,13.624C-139.1,14.074 -139.138,14.572 -139.182,15.1C-139.591,20.015 -141.244,24.721 -143.8,28.94C-144.67,30.376 -145.574,32.169 -146.364,34.344C-148.877,41.305 -144.421,48.294 -146.315,54.382C-148.21,60.483 -151.712,69.584 -147.835,78.577C-142.308,91.4 -156.877,95.558 -141.656,108.214C-131.952,116.283 -115.24,115.811 -107.841,108.858C-125.717,84.386 -104.539,44.376 -102.345,35.895L-59.841,62.872C-59.841,62.872 -75.335,83.253 -58.212,105.777C-54.593,110.535 -48.839,115.714 -35.811,112.867C-25.233,110.556 -24.74,114.081 -11.429,105.494C9.013,92.309 -3.843,86.947 0,82.512" style="fill:rgb(0,51,78);fill-rule:nonzero;"/>
            </g>
        </g>
        <g transform="matrix(1,0,0,1,6480,0)">
            <g transform="matrix(1,0,0,1,1502.81,279.201)">
                <path d="M0,-8.09C3.803,8.452 19.136,15.977 29.066,18.087C30.021,18.275 30.921,18.423 31.754,18.517C32.157,18.584 32.533,18.625 32.896,18.651L32.762,21.446L32.507,25.008L32.292,28.166L25.224,57.809C24.336,61.532 28.516,64.381 31.66,62.19C45.837,52.3 70.886,38.486 71.168,33.487C71.168,33.487 72.632,25.868 74.635,2.701C74.756,1.25 74.876,-0.256 75.011,-1.828C75.051,-2.231 75.092,-2.62 75.118,-2.997C75.186,-3.777 75.293,-4.717 75.4,-5.657C75.669,-7.996 76.005,-10.374 76.153,-10.549C76.287,-10.684 76.408,-10.818 76.516,-10.966C82.065,-17.228 84.848,-22.724 85.52,-27.105C85.143,-28.637 84.713,-30.168 84.242,-31.687C83.409,-34.402 81.743,-36.847 79.324,-38.339C69.272,-44.574 66.612,-24.888 66.612,-24.888C66.612,-24.888 32.641,-31.915 24.242,-71.598C22.227,-72.149 16.583,-72.471 11.288,-68.749C7.297,-65.953 3.521,-60.848 1.626,-51.817L1.626,-51.804C2.393,-46.402 3.319,-41.228 2.876,-36.35C2.298,-29.712 -2.674,-19.619 0,-8.09" style="fill:rgb(138,59,0);fill-rule:nonzero;"/>
            </g>
        </g>
        <g transform="matrix(1,0,0,1,6480,0)">
            <g opacity="0.22">
                <g transform="matrix(-0.62125,0.783613,0.783613,0.62125,1575.46,222.948)">
                    <path d="M28.33,-55.848C35.726,-43.331 40.491,-28.978 37.613,-10.322C34.432,10.302 28.33,14.753 28.33,14.753C28.33,14.753 43.928,-16.233 18.05,-47.467C18.872,-49.389 22.124,-54.011 28.33,-55.848" style="fill-rule:nonzero;"/>
                </g>
            </g>
        </g>
        <g transform="matrix(1,0,0,1,6480,0)">
            <g opacity="0.22">
                <g transform="matrix(1,0,0,1,1535.57,277.106)">
                    <path d="M0,23.542L-0.255,27.104C12.592,25.571 27.991,20.277 41.873,4.797C41.994,3.346 42.114,1.84 42.249,0.268C42.289,-0.135 42.33,-0.524 42.356,-0.901C42.424,-1.681 42.531,-2.621 42.639,-3.562C25.653,10.158 11.207,17.32 -1.008,20.613C-0.604,20.68 -0.229,20.721 0.135,20.747L0,23.542Z" style="fill-rule:nonzero;"/>
                </g>
            </g>
        </g>
        <g transform="matrix(1,0,0,1,6480,0)">
            <g transform="matrix(2.59226,6.02936,6.02936,-2.59226,1579.82,249.709)">
                <path d="M-0.183,-0.375L1.358,-0.375C1.358,-0.375 0.772,0.61 0.087,0.533C-0.116,0.51 -0.222,0.42 -0.271,0.306C-0.388,0.036 -0.183,-0.375 -0.183,-0.375Z" style="fill:url(#_Linear10);fill-rule:nonzero;"/>
            </g>
        </g>
        <g transform="matrix(1,0,0,1,6480,0)">
            <g transform="matrix(1,0,0,1,1565.88,462.542)">
                <path d="M0,-133.122L-38.995,-35.97L-81.352,-82.024L-95.135,-68.914C-95.135,-68.914 -49.08,0 -31.263,-2.018C-13.446,-4.034 26.894,-105.556 26.894,-105.556" style="fill:rgb(238,111,87);fill-rule:nonzero;"/>
            </g>
        </g>
        <g transform="matrix(1,0,0,1,6480,0)">
            <g transform="matrix(1,0,0,1,1722.68,516.869)">
                <path d="M0,243.978C0,243.978 32.979,207.274 29.48,192.799C25.982,178.325 46.441,160.759 46.843,139.686C47.297,115.819 34.543,122.199 30.132,111.995C23.594,96.869 38.15,83.472 16.136,77.683C1.103,73.73 -9.465,81.442 -8.093,62.843C-6.72,44.245 -13.45,21.231 -25.496,12.874C-42.701,0.937 -77.705,0 -65.916,24.062C-53.528,49.346 -64.446,90.989 -67.334,102.392C-97.853,222.912 0,243.978 0,243.978" style="fill:rgb(211,94,79);fill-rule:nonzero;"/>
            </g>
        </g>
        <g transform="matrix(1,0,0,1,6480,0)">
            <g transform="matrix(1,0,0,1,1685.89,753.266)">
                <path d="M0,-198.726C3.776,-167.609 42.795,-117.893 25.111,-84.663C7.428,-51.433 34.233,0 34.233,0" style="fill:none;fill-rule:nonzero;stroke:url(#_Linear11);stroke-width:0.93px;"/>
            </g>
        </g>
        <g transform="matrix(1,0,0,1,6480,0)">
            <g transform="matrix(1,0,0,1,1822.61,638.769)">
                <path d="M0,52.565C-21.417,60.136 1.771,87.841 -21.649,100.321C-45.057,112.8 -75.095,119.126 -76.475,113.069C-76.572,112.666 -77.83,108.648 -79.16,102.775C-79.466,101.419 -79.771,99.955 -80.076,98.416C-80.149,97.989 -80.235,97.549 -80.32,97.11C-81.114,92.762 -81.798,87.903 -82.091,82.933C-82.104,82.787 -82.104,82.64 -82.115,82.494C-82.226,80.601 -82.262,78.696 -82.226,76.803C-82.188,74.972 -82.091,73.165 -81.896,71.394C-81.199,64.654 -79.271,58.439 -75.326,53.982C-74.325,52.835 -73.189,51.808 -71.907,50.918C-55.631,39.598 -49.135,45.092 -49.257,28.364C-49.477,-0.306 -41.308,-4.592 -31.698,-1.759C-22.089,1.074 -14.579,1.868 -13.175,-8.732C-11.759,-19.331 -20.44,-66.561 1.38,-66.475C39.184,-66.353 20.074,-18.097 16.253,-10.27C7.095,8.498 26.144,11.44 30.673,25.116C35.191,38.792 21.405,44.995 0,52.565" style="fill:rgb(20,83,116);fill-rule:nonzero;"/>
            </g>
        </g>
        <g transform="matrix(1,0,0,1,6480,0)">
            <g transform="matrix(1,0,0,1,1741.95,598.009)">
                <path d="M0,195.024C0,195.024 -5.752,142.248 34.469,112.673C52.64,99.312 86.418,51.605 83.36,0" style="fill:none;fill-rule:nonzero;stroke:url(#_Linear12);stroke-width:2.67px;"/>
            </g>
        </g>
        <g transform="matrix(1,0,0,1,6480,0)">
            <g transform="matrix(-34.0904,-33.4976,-33.4976,34.0904,1719.84,680.659)">
                <path d="M1.016,-0.011C0.969,0.179 -0.02,0.198 -0.001,-0.009C0.015,-0.194 0.854,-0.209 0.997,-0.068C1.014,-0.051 1.021,-0.032 1.016,-0.011Z" style="fill:url(#_Linear13);fill-rule:nonzero;"/>
            </g>
        </g>
        <g transform="matrix(1,0,0,1,6480,0)">
            <g transform="matrix(-39.6706,-13.8112,-13.8112,39.6706,1718.89,709.135)">
                <path d="M1.072,-0.01C1.014,0.206 -0.005,0.215 0.021,-0.022C0.041,-0.202 0.675,-0.233 0.95,-0.137C1.036,-0.107 1.087,-0.065 1.072,-0.01Z" style="fill:url(#_Linear14);fill-rule:nonzero;"/>
            </g>
        </g>
        <g transform="matrix(1,0,0,1,6480,0)">
            <g transform="matrix(36.0759,-28.3876,-28.3876,-36.0759,1722.64,680.857)">
                <path d="M-0.035,0.001C-0.016,-0.214 1.073,-0.165 1.022,0.041C1.018,0.058 1.006,0.073 0.989,0.087C0.804,0.233 -0.051,0.198 -0.035,0.001Z" style="fill:url(#_Linear15);fill-rule:nonzero;"/>
            </g>
        </g>
        <g transform="matrix(1,0,0,1,6480,0)">
            <g transform="matrix(35.0182,-16.7734,-16.7734,-35.0182,1719.83,709.209)">
                <path d="M-0.022,0.02C0.013,-0.233 1.068,-0.214 0.999,0.027C0.988,0.066 0.95,0.099 0.895,0.126C0.625,0.255 -0.052,0.23 -0.022,0.02Z" style="fill:url(#_Linear16);fill-rule:nonzero;"/>
            </g>
        </g>
        <g transform="matrix(1,0,0,1,6480,0)">
            <g transform="matrix(-46.6231,-5.57132,-5.57132,46.6231,1725.55,736.324)">
                <path d="M0.994,-0.03C0.934,0.148 -0.031,0.165 0.001,-0.031C0.021,-0.156 0.442,-0.197 0.73,-0.163C0.895,-0.143 1.017,-0.098 0.994,-0.03Z" style="fill:url(#_Linear17);fill-rule:nonzero;"/>
            </g>
        </g>
        <g transform="matrix(1,0,0,1,6480,0)">
            <g transform="matrix(31.8531,-19.4658,-19.4658,-31.8531,1720.8,738.5)">
                <path d="M-0.053,0.017C-0.09,-0.247 0.985,-0.247 0.989,0.013C0.989,0.055 0.962,0.09 0.915,0.118C0.683,0.26 -0.023,0.237 -0.053,0.017Z" style="fill:url(#_Linear18);fill-rule:nonzero;"/>
            </g>
        </g>
        <g transform="matrix(1,0,0,1,6480,0)">
            <g transform="matrix(-10.8998,44.5681,44.5681,10.8998,1732.17,606.66)">
                <path d="M1.031,-0.003C1.029,0.21 -0.065,0.223 -0.03,0.015C-0.029,0.013 -0.029,0.012 -0.029,0.01C0.019,-0.184 1.033,-0.215 1.031,-0.003Z" style="fill:url(#_Linear19);fill-rule:nonzero;"/>
            </g>
        </g>
        <g transform="matrix(1,0,0,1,6480,0)">
            <g transform="matrix(10.1137,-10.2464,-10.2464,-10.1137,1698.75,669.85)">
                <path d="M0.814,1.737C0.182,1.578 0.129,-1.704 0.815,-1.641C1.428,-1.584 1.474,1.199 1.004,1.674C0.948,1.731 0.885,1.755 0.814,1.737Z" style="fill:url(#_Linear20);fill-rule:nonzero;"/>
            </g>
        </g>
        <g transform="matrix(1,0,0,1,6480,0)">
            <g transform="matrix(4.43943,-13.8422,-13.8422,-4.43943,1697.01,710.306)">
                <path d="M0.836,1.542C0.206,1.389 0.109,-1.554 0.794,-1.495C1.316,-1.45 1.451,0.379 1.194,1.179C1.113,1.43 0.994,1.58 0.836,1.542Z" style="fill:url(#_Linear21);fill-rule:nonzero;"/>
            </g>
        </g>
        <g transform="matrix(1,0,0,1,6480,0)">
            <g transform="matrix(9.0799,11.1977,11.1977,-9.0799,1735.1,653.845)">
                <path d="M0.852,-1.788C1.538,-1.74 1.435,1.729 0.775,1.578C0.721,1.566 0.671,1.53 0.627,1.475C0.155,0.894 0.226,-1.832 0.852,-1.788Z" style="fill:url(#_Linear22);fill-rule:nonzero;"/>
            </g>
        </g>
        <g transform="matrix(1,0,0,1,6480,0)">
            <g transform="matrix(-2.46047,21.3826,21.3826,2.46047,1749.33,688.205)">
                <path d="M0.145,-0.054C0.368,-0.205 0.659,-0.258 0.968,-0.254C0.71,0.197 0.314,0.606 0.145,0.419C0.097,0.365 0.083,0.275 0.095,0.165C0.103,0.098 0.12,0.024 0.145,-0.054Z" style="fill:url(#_Linear23);fill-rule:nonzero;"/>
            </g>
        </g>
        <g transform="matrix(1,0,0,1,6480,0)">
            <g transform="matrix(7.39923,12.7763,11.3636,-6.58106,1733.51,687.506)">
                <path d="M0.721,-1.612C1.392,-1.566 1.56,1.547 0.913,1.4C0.808,1.376 0.714,1.272 0.633,1.115C0.239,0.351 0.164,-1.651 0.721,-1.612Z" style="fill:url(#_Linear24);fill-rule:nonzero;"/>
            </g>
        </g>
        <g transform="matrix(1,0,0,1,6480,0)">
            <g transform="matrix(1,0,0,1,1723.36,759.673)">
                <path d="M0,-118.563C0,-118.563 1.104,-93.31 -2.244,-71.267C-5.592,-49.225 2.852,-11.924 16.584,0" style="fill:none;fill-rule:nonzero;stroke:url(#_Linear25);stroke-width:1.55px;"/>
            </g>
        </g>
        <g transform="matrix(1,0,0,1,6480,0)">
            <g transform="matrix(0.602197,-14.0511,-15.161,-0.649764,1702.05,741.875)">
                <path d="M0.942,1.533C0.334,1.39 0.032,-1.585 0.693,-1.532C1.113,-1.498 1.357,-0.209 1.316,0.687C1.292,1.202 1.174,1.588 0.942,1.533Z" style="fill:url(#_Linear26);fill-rule:nonzero;"/>
            </g>
        </g>
        <g transform="matrix(1,0,0,1,6480,0)">
            <g transform="matrix(14.9949,-16.628,-16.628,-14.9949,1742.06,732.346)">
                <path d="M0.414,0.419C0.41,0.414 0.405,0.41 0.4,0.405C0.247,0.249 0.108,0.085 -0.011,-0.068C-0.022,-0.084 -0.034,-0.099 -0.046,-0.114C0.409,-0.282 0.981,-0.34 1.054,-0.107C1.075,-0.041 1.047,0.028 0.986,0.096C0.876,0.218 0.656,0.335 0.414,0.419Z" style="fill:url(#_Linear27);fill-rule:nonzero;"/>
            </g>
        </g>
        <g transform="matrix(1,0,0,1,6480,0)">
            <g transform="matrix(5.68825,15.32,12.1202,-4.50017,1737.8,710.058)">
                <path d="M1.036,-1.573C1.644,-1.53 1.174,1.516 0.588,1.382C0.495,1.361 0.428,1.263 0.385,1.116C0.168,0.378 0.529,-1.609 1.036,-1.573Z" style="fill:url(#_Linear28);fill-rule:nonzero;"/>
            </g>
        </g>
        <g transform="matrix(1,0,0,1,6480,0)">
            <g transform="matrix(-10.8998,44.5681,44.5681,10.8998,1734.51,606.019)">
                <path d="M1.031,-0.003C1.029,0.21 -0.065,0.223 -0.03,0.015C-0.029,0.013 -0.029,0.012 -0.029,0.01C0.019,-0.184 1.033,-0.215 1.031,-0.003Z" style="fill:url(#_Linear29);fill-rule:nonzero;"/>
            </g>
        </g>
        <g transform="matrix(1,0,0,1,6480,0)">
            <g transform="matrix(1,0,0,1,1743.77,753.266)">
                <path d="M0,84.856L-29.711,84.856C-43.103,84.856 -54.431,74.953 -56.22,61.681L-63.593,7.002C-64.093,3.296 -61.211,0 -57.472,0L27.761,0C31.5,0 34.382,3.296 33.882,7.002L26.51,61.681C24.72,74.953 13.392,84.856 0,84.856" style="fill:rgb(0,51,78);fill-rule:nonzero;"/>
            </g>
        </g>
    </g>
    <defs>
        <linearGradient id="_Linear1" x1="0" y1="0" x2="1" y2="0" gradientUnits="userSpaceOnUse" gradientTransform="matrix(1,0,0,-1,0,1.62971e-05)"><stop offset="0" style="stop-color:rgb(117,50,0);stop-opacity:1"/><stop offset="1" style="stop-color:rgb(160,68,0);stop-opacity:1"/></linearGradient>
        <linearGradient id="_Linear2" x1="0" y1="0" x2="1" y2="0" gradientUnits="userSpaceOnUse" gradientTransform="matrix(1,0,0,-1,0,0.0813512)"><stop offset="0" style="stop-color:rgb(117,50,0);stop-opacity:1"/><stop offset="1" style="stop-color:rgb(160,68,0);stop-opacity:1"/></linearGradient>
        <linearGradient id="_Linear3" x1="0" y1="0" x2="1" y2="0" gradientUnits="userSpaceOnUse" gradientTransform="matrix(1,0,0,-1,0,-4.36504e-05)"><stop offset="0" style="stop-color:rgb(117,50,0);stop-opacity:1"/><stop offset="1" style="stop-color:rgb(160,68,0);stop-opacity:1"/></linearGradient>
        <linearGradient id="_Linear4" x1="0" y1="0" x2="1" y2="0" gradientUnits="userSpaceOnUse" gradientTransform="matrix(-0.644569,0.764546,0.764546,0.644569,1.06124,-0.493362)"><stop offset="0" style="stop-color:rgb(117,50,0);stop-opacity:1"/><stop offset="1" style="stop-color:rgb(160,68,0);stop-opacity:1"/></linearGradient>
        <linearGradient id="_Linear5" x1="0" y1="0" x2="1" y2="0" gradientUnits="userSpaceOnUse" gradientTransform="matrix(1,0,0,-1,0,0.00684412)"><stop offset="0" style="stop-color:rgb(117,50,0);stop-opacity:1"/><stop offset="1" style="stop-color:rgb(160,68,0);stop-opacity:1"/></linearGradient>
        <linearGradient id="_Linear6" x1="0" y1="0" x2="1" y2="0" gradientUnits="userSpaceOnUse" gradientTransform="matrix(1,0,0,-1,0,0.0449519)"><stop offset="0" style="stop-color:rgb(117,50,0);stop-opacity:1"/><stop offset="1" style="stop-color:rgb(160,68,0);stop-opacity:1"/></linearGradient>
        <linearGradient id="_Linear7" x1="0" y1="0" x2="1" y2="0" gradientUnits="userSpaceOnUse" gradientTransform="matrix(1,0,0,-1,0,0.0171503)"><stop offset="0" style="stop-color:rgb(117,50,0);stop-opacity:1"/><stop offset="1" style="stop-color:rgb(160,68,0);stop-opacity:1"/></linearGradient>
        <linearGradient id="_Linear8" x1="0" y1="0" x2="1" y2="0" gradientUnits="userSpaceOnUse" gradientTransform="matrix(1,0,0,-1,0,-0.0404093)"><stop offset="0" style="stop-color:rgb(117,50,0);stop-opacity:1"/><stop offset="1" style="stop-color:rgb(160,68,0);stop-opacity:1"/></linearGradient>
        <linearGradient id="_Linear9" x1="0" y1="0" x2="1" y2="0" gradientUnits="userSpaceOnUse" gradientTransform="matrix(1,-5.55112e-17,-5.55112e-17,-1,0,-0.0746002)"><stop offset="0" style="stop-color:rgb(160,68,0);stop-opacity:1"/><stop offset="1" style="stop-color:rgb(117,50,0);stop-opacity:1"/></linearGradient>
        <linearGradient id="_Linear10" x1="0" y1="0" x2="1" y2="0" gradientUnits="userSpaceOnUse" gradientTransform="matrix(0.155071,-0.987903,-0.987903,-0.155071,0.422452,0.493937)"><stop offset="0" style="stop-color:rgb(117,50,0);stop-opacity:1"/><stop offset="1" style="stop-color:rgb(160,68,0);stop-opacity:1"/></linearGradient>
        <linearGradient id="_Linear11" x1="0" y1="0" x2="1" y2="0" gradientUnits="userSpaceOnUse" gradientTransform="matrix(-26.3474,-199.93,199.93,-26.3474,34.9404,0.067)"><stop offset="0" style="stop-color:rgb(63,61,158);stop-opacity:1"/><stop offset="0.99" style="stop-color:rgb(66,62,159);stop-opacity:1"/><stop offset="1" style="stop-color:rgb(66,62,159);stop-opacity:1"/></linearGradient>
        <linearGradient id="_Linear12" x1="0" y1="0" x2="1" y2="0" gradientUnits="userSpaceOnUse" gradientTransform="matrix(85.8875,0.294055,-0.294055,85.8875,-1.3063,97.3978)"><stop offset="0" style="stop-color:rgb(186,198,216);stop-opacity:1"/><stop offset="0.99" style="stop-color:rgb(214,219,248);stop-opacity:1"/><stop offset="1" style="stop-color:rgb(214,219,248);stop-opacity:1"/></linearGradient>
        <linearGradient id="_Linear13" x1="0" y1="0" x2="1" y2="0" gradientUnits="userSpaceOnUse" gradientTransform="matrix(1,0,0,-1,0,-0.0117014)"><stop offset="0" style="stop-color:rgb(31,24,68);stop-opacity:1"/><stop offset="0.99" style="stop-color:rgb(61,60,153);stop-opacity:1"/><stop offset="1" style="stop-color:rgb(61,60,153);stop-opacity:1"/></linearGradient>
        <linearGradient id="_Linear14" x1="0" y1="0" x2="1" y2="0" gradientUnits="userSpaceOnUse" gradientTransform="matrix(1,0,0,-1,0,-0.0182356)"><stop offset="0" style="stop-color:rgb(31,24,68);stop-opacity:1"/><stop offset="0.99" style="stop-color:rgb(61,60,153);stop-opacity:1"/><stop offset="1" style="stop-color:rgb(61,60,153);stop-opacity:1"/></linearGradient>
        <linearGradient id="_Linear15" x1="0" y1="0" x2="1" y2="0" gradientUnits="userSpaceOnUse" gradientTransform="matrix(1,0,0,-1,0,0.0189365)"><stop offset="0" style="stop-color:rgb(31,24,68);stop-opacity:1"/><stop offset="0.99" style="stop-color:rgb(61,60,153);stop-opacity:1"/><stop offset="1" style="stop-color:rgb(61,60,153);stop-opacity:1"/></linearGradient>
        <linearGradient id="_Linear16" x1="0" y1="0" x2="1" y2="0" gradientUnits="userSpaceOnUse" gradientTransform="matrix(1,0,0,-1,0,0.021321)"><stop offset="0" style="stop-color:rgb(31,24,68);stop-opacity:1"/><stop offset="0.99" style="stop-color:rgb(61,60,153);stop-opacity:1"/><stop offset="1" style="stop-color:rgb(61,60,153);stop-opacity:1"/></linearGradient>
        <linearGradient id="_Linear17" x1="0" y1="0" x2="1" y2="0" gradientUnits="userSpaceOnUse" gradientTransform="matrix(1,1.38778e-17,1.38778e-17,-1,0,-0.0324429)"><stop offset="0" style="stop-color:rgb(31,24,68);stop-opacity:1"/><stop offset="0.99" style="stop-color:rgb(61,60,153);stop-opacity:1"/><stop offset="1" style="stop-color:rgb(61,60,153);stop-opacity:1"/></linearGradient>
        <linearGradient id="_Linear18" x1="0" y1="0" x2="1" y2="0" gradientUnits="userSpaceOnUse" gradientTransform="matrix(1,5.55112e-17,5.55112e-17,-1,0,0.0130405)"><stop offset="0" style="stop-color:rgb(31,24,68);stop-opacity:1"/><stop offset="0.99" style="stop-color:rgb(61,60,153);stop-opacity:1"/><stop offset="1" style="stop-color:rgb(61,60,153);stop-opacity:1"/></linearGradient>
        <linearGradient id="_Linear19" x1="0" y1="0" x2="1" y2="0" gradientUnits="userSpaceOnUse" gradientTransform="matrix(1,2.77556e-17,2.77556e-17,-1,0,0.00734547)"><stop offset="0" style="stop-color:rgb(61,60,153);stop-opacity:1"/><stop offset="0.01" style="stop-color:rgb(61,60,153);stop-opacity:1"/><stop offset="1" style="stop-color:rgb(31,24,68);stop-opacity:1"/></linearGradient>
        <linearGradient id="_Linear20" x1="0" y1="0" x2="1" y2="0" gradientUnits="userSpaceOnUse" gradientTransform="matrix(1,5.55112e-17,5.55112e-17,-1,0,0.050591)"><stop offset="0" style="stop-color:rgb(224,228,235);stop-opacity:1"/><stop offset="0.99" style="stop-color:rgb(243,246,253);stop-opacity:1"/><stop offset="1" style="stop-color:rgb(243,246,253);stop-opacity:1"/></linearGradient>
        <linearGradient id="_Linear21" x1="0" y1="0" x2="1" y2="0" gradientUnits="userSpaceOnUse" gradientTransform="matrix(1,5.55112e-17,5.55112e-17,-1,0,0.0260271)"><stop offset="0" style="stop-color:rgb(224,228,235);stop-opacity:1"/><stop offset="0.99" style="stop-color:rgb(243,246,253);stop-opacity:1"/><stop offset="1" style="stop-color:rgb(243,246,253);stop-opacity:1"/></linearGradient>
        <linearGradient id="_Linear22" x1="0" y1="0" x2="1" y2="0" gradientUnits="userSpaceOnUse" gradientTransform="matrix(1,5.55112e-17,5.55112e-17,-1,0,-0.102803)"><stop offset="0" style="stop-color:rgb(224,228,235);stop-opacity:1"/><stop offset="0.99" style="stop-color:rgb(243,246,253);stop-opacity:1"/><stop offset="1" style="stop-color:rgb(243,246,253);stop-opacity:1"/></linearGradient>
        <linearGradient id="_Linear23" x1="0" y1="0" x2="1" y2="0" gradientUnits="userSpaceOnUse" gradientTransform="matrix(-0.79131,0.611415,0.611415,0.79131,0.913581,-0.311826)"><stop offset="0" style="stop-color:rgb(187,192,217);stop-opacity:1"/><stop offset="0.01" style="stop-color:rgb(187,192,217);stop-opacity:1"/><stop offset="1" style="stop-color:rgb(214,219,248);stop-opacity:1"/></linearGradient>
        <linearGradient id="_Linear24" x1="0" y1="0" x2="1" y2="0" gradientUnits="userSpaceOnUse" gradientTransform="matrix(1,0,0,-1,0,-0.103736)"><stop offset="0" style="stop-color:rgb(224,228,235);stop-opacity:1"/><stop offset="0.99" style="stop-color:rgb(243,246,253);stop-opacity:1"/><stop offset="1" style="stop-color:rgb(243,246,253);stop-opacity:1"/></linearGradient>
        <linearGradient id="_Linear25" x1="0" y1="0" x2="1" y2="0" gradientUnits="userSpaceOnUse" gradientTransform="matrix(20.3104,-4.83205,4.83205,20.3104,-5.7404,-55.7864)"><stop offset="0" style="stop-color:rgb(224,228,235);stop-opacity:1"/><stop offset="0.99" style="stop-color:rgb(243,246,253);stop-opacity:1"/><stop offset="1" style="stop-color:rgb(243,246,253);stop-opacity:1"/></linearGradient>
        <linearGradient id="_Linear26" x1="0" y1="0" x2="1" y2="0" gradientUnits="userSpaceOnUse" gradientTransform="matrix(1,0,0,-1,0,0.00289645)"><stop offset="0" style="stop-color:rgb(224,228,235);stop-opacity:1"/><stop offset="0.99" style="stop-color:rgb(243,246,253);stop-opacity:1"/><stop offset="1" style="stop-color:rgb(243,246,253);stop-opacity:1"/></linearGradient>
        <linearGradient id="_Linear27" x1="0" y1="0" x2="1" y2="0" gradientUnits="userSpaceOnUse" gradientTransform="matrix(1,0,0,-1,0,0.0785199)"><stop offset="0" style="stop-color:rgb(187,192,217);stop-opacity:1"/><stop offset="0.01" style="stop-color:rgb(187,192,217);stop-opacity:1"/><stop offset="1" style="stop-color:rgb(214,219,248);stop-opacity:1"/></linearGradient>
        <linearGradient id="_Linear28" x1="0" y1="0" x2="1" y2="0" gradientUnits="userSpaceOnUse" gradientTransform="matrix(1,0,0,-1,0,-0.0937237)"><stop offset="0" style="stop-color:rgb(224,228,235);stop-opacity:1"/><stop offset="0.99" style="stop-color:rgb(243,246,253);stop-opacity:1"/><stop offset="1" style="stop-color:rgb(243,246,253);stop-opacity:1"/></linearGradient>
        <linearGradient id="_Linear29" x1="0" y1="0" x2="1" y2="0" gradientUnits="userSpaceOnUse" gradientTransform="matrix(1,2.77556e-17,2.77556e-17,-1,0,0.00733412)"><stop offset="0" style="stop-color:rgb(230,234,241);stop-opacity:1"/><stop offset="0.99" style="stop-color:rgb(243,246,253);stop-opacity:1"/><stop offset="1" style="stop-color:rgb(243,246,253);stop-opacity:1"/></linearGradient>
    </defs>
</svg>
