<?xml version="1.0" encoding="UTF-8" standalone="no"?>
<!DOCTYPE svg PUBLIC "-//W3C//DTD SVG 1.1//EN" "http://www.w3.org/Graphics/SVG/1.1/DTD/svg11.dtd">
<svg width="100%" height="100%" viewBox="0 0 766 648" version="1.1" xmlns="http://www.w3.org/2000/svg" xmlns:xlink="http://www.w3.org/1999/xlink" xml:space="preserve" xmlns:serif="http://www.serif.com/" style="fill-rule:evenodd;clip-rule:evenodd;stroke-miterlimit:10;">
    <g transform="matrix(1,0,0,1,-1110,-338.344)">
        <g transform="matrix(765,0,0,-765,1110,686.599)">
            <path d="M0.111,0.024C0.294,-0.07 0.026,-0.187 0.218,-0.304C0.412,-0.423 0.827,-0.412 0.929,-0.319C1.031,-0.227 1.004,-0.065 0.966,0.012C0.878,0.192 0.627,0.455 0.301,0.455C0.3,0.455 0.3,0.455 0.299,0.455C-0.04,0.455 -0.073,0.118 0.111,0.024Z" style="fill:url(#_Linear1);fill-rule:nonzero;"/>
        </g>
        <g transform="matrix(1,0,0,1,1215.68,611.869)">
            <path d="M0,243.978C0,243.978 32.979,207.274 29.48,192.799C25.982,178.325 46.441,160.759 46.843,139.686C47.297,115.819 34.543,122.199 30.132,111.995C23.594,96.869 38.15,83.472 16.136,77.683C1.103,73.73 -9.465,81.442 -8.093,62.843C-6.72,44.245 -13.45,21.231 -25.496,12.874C-42.701,0.937 -77.705,0 -65.916,24.062C-53.528,49.346 -64.446,90.989 -67.334,102.392C-97.853,222.912 0,243.978 0,243.978" style="fill:rgb(211,94,79);fill-rule:nonzero;"/>
        </g>
        <g transform="matrix(1,0,0,1,1178.89,848.266)">
            <path d="M0,-198.726C3.776,-167.609 42.795,-117.893 25.111,-84.663C7.428,-51.433 34.233,0 34.233,0" style="fill:none;fill-rule:nonzero;stroke:url(#_Linear2);stroke-width:0.93px;"/>
        </g>
        <g transform="matrix(1,0,0,1,1315.61,733.769)">
            <path d="M0,52.565C-21.417,60.136 1.771,87.841 -21.649,100.321C-45.057,112.8 -75.095,119.126 -76.475,113.069C-76.572,112.666 -77.83,108.648 -79.16,102.775C-79.466,101.419 -79.771,99.955 -80.076,98.416C-80.149,97.989 -80.235,97.549 -80.32,97.11C-81.114,92.762 -81.798,87.903 -82.091,82.933C-82.104,82.787 -82.104,82.64 -82.115,82.494C-82.226,80.601 -82.262,78.696 -82.226,76.803C-82.188,74.972 -82.091,73.165 -81.896,71.394C-81.199,64.654 -79.271,58.439 -75.326,53.982C-74.325,52.835 -73.189,51.808 -71.907,50.918C-55.631,39.598 -49.135,45.092 -49.257,28.364C-49.477,-0.306 -41.308,-4.592 -31.698,-1.759C-22.089,1.074 -14.579,1.868 -13.175,-8.732C-11.759,-19.331 -20.44,-66.561 1.38,-66.475C39.184,-66.353 20.074,-18.097 16.253,-10.27C7.095,8.498 26.144,11.44 30.673,25.116C35.191,38.792 21.405,44.995 0,52.565" style="fill:rgb(20,83,116);fill-rule:nonzero;"/>
        </g>
        <g transform="matrix(1,0,0,1,1234.95,693.009)">
            <path d="M0,195.024C0,195.024 -5.752,142.248 34.469,112.673C52.64,99.312 86.418,51.605 83.36,0" style="fill:none;fill-rule:nonzero;stroke:url(#_Linear3);stroke-width:2.67px;"/>
        </g>
        <g transform="matrix(-34.0904,-33.4976,-33.4976,34.0904,1212.84,775.659)">
            <path d="M1.016,-0.011C0.969,0.179 -0.02,0.198 -0.001,-0.009C0.015,-0.194 0.854,-0.209 0.997,-0.068C1.014,-0.051 1.021,-0.032 1.016,-0.011Z" style="fill:url(#_Linear4);fill-rule:nonzero;"/>
        </g>
        <g transform="matrix(-39.6706,-13.8112,-13.8112,39.6706,1211.9,804.133)">
            <path d="M1.072,-0.01C1.014,0.206 -0.005,0.215 0.021,-0.022C0.041,-0.202 0.675,-0.233 0.95,-0.137C1.036,-0.107 1.087,-0.065 1.072,-0.01Z" style="fill:url(#_Linear5);fill-rule:nonzero;"/>
        </g>
        <g transform="matrix(36.0759,-28.3876,-28.3876,-36.0759,1215.64,775.858)">
            <path d="M-0.035,0.001C-0.016,-0.214 1.073,-0.165 1.022,0.041C1.018,0.058 1.006,0.073 0.989,0.087C0.804,0.233 -0.051,0.198 -0.035,0.001Z" style="fill:url(#_Linear6);fill-rule:nonzero;"/>
        </g>
        <g transform="matrix(35.0182,-16.7734,-16.7734,-35.0182,1212.83,804.207)">
            <path d="M-0.022,0.02C0.013,-0.233 1.068,-0.214 0.999,0.027C0.988,0.066 0.95,0.099 0.895,0.126C0.625,0.255 -0.052,0.23 -0.022,0.02Z" style="fill:url(#_Linear7);fill-rule:nonzero;"/>
        </g>
        <g transform="matrix(-46.6231,-5.57132,-5.57132,46.6231,1218.55,831.325)">
            <path d="M0.994,-0.03C0.934,0.148 -0.031,0.165 0.001,-0.031C0.021,-0.156 0.442,-0.197 0.73,-0.163C0.895,-0.143 1.017,-0.098 0.994,-0.03Z" style="fill:url(#_Linear8);fill-rule:nonzero;"/>
        </g>
        <g transform="matrix(31.8531,-19.4658,-19.4658,-31.8531,1213.8,833.5)">
            <path d="M-0.053,0.017C-0.09,-0.247 0.985,-0.247 0.989,0.013C0.989,0.055 0.962,0.09 0.915,0.118C0.683,0.26 -0.023,0.238 -0.053,0.017Z" style="fill:url(#_Linear9);fill-rule:nonzero;"/>
        </g>
        <g transform="matrix(-10.8998,44.5681,44.5681,10.8998,1225.17,701.66)">
            <path d="M1.031,-0.003C1.029,0.21 -0.065,0.223 -0.03,0.015C-0.029,0.013 -0.029,0.012 -0.029,0.01C0.019,-0.184 1.033,-0.215 1.031,-0.003Z" style="fill:url(#_Linear10);fill-rule:nonzero;"/>
        </g>
        <g transform="matrix(10.1137,-10.2464,-10.2464,-10.1137,1191.75,764.85)">
            <path d="M0.814,1.737C0.182,1.579 0.129,-1.704 0.815,-1.641C1.428,-1.584 1.474,1.199 1.004,1.674C0.948,1.731 0.885,1.755 0.814,1.737Z" style="fill:url(#_Linear11);fill-rule:nonzero;"/>
        </g>
        <g transform="matrix(4.43943,-13.8422,-13.8422,-4.43943,1190.01,805.306)">
            <path d="M0.836,1.542C0.206,1.389 0.109,-1.554 0.794,-1.495C1.316,-1.45 1.451,0.378 1.194,1.179C1.113,1.43 0.994,1.58 0.836,1.542Z" style="fill:url(#_Linear12);fill-rule:nonzero;"/>
        </g>
        <g transform="matrix(9.0799,11.1977,11.1977,-9.0799,1228.1,748.845)">
            <path d="M0.852,-1.788C1.538,-1.74 1.435,1.729 0.775,1.578C0.721,1.566 0.671,1.53 0.627,1.475C0.155,0.894 0.226,-1.832 0.852,-1.788Z" style="fill:url(#_Linear13);fill-rule:nonzero;"/>
        </g>
        <g transform="matrix(-2.4628,21.3823,21.3823,2.4628,1242.33,783.205)">
            <path d="M0.145,-0.054C0.368,-0.205 0.659,-0.258 0.968,-0.254C0.71,0.197 0.313,0.606 0.145,0.419C0.096,0.365 0.083,0.275 0.095,0.165C0.103,0.098 0.12,0.024 0.145,-0.054Z" style="fill:url(#_Linear14);fill-rule:nonzero;"/>
        </g>
        <g transform="matrix(7.39923,12.7763,11.3636,-6.58106,1226.51,782.506)">
            <path d="M0.721,-1.612C1.392,-1.566 1.56,1.547 0.913,1.4C0.808,1.376 0.714,1.272 0.633,1.115C0.239,0.351 0.164,-1.651 0.721,-1.612Z" style="fill:url(#_Linear15);fill-rule:nonzero;"/>
        </g>
        <g transform="matrix(1,0,0,1,1216.36,854.673)">
            <path d="M0,-118.563C0,-118.563 1.104,-93.31 -2.244,-71.267C-5.592,-49.225 2.852,-11.924 16.584,0" style="fill:none;fill-rule:nonzero;stroke:url(#_Linear16);stroke-width:1.55px;"/>
        </g>
        <g transform="matrix(0.602197,-14.0511,-15.161,-0.649764,1195.05,836.875)">
            <path d="M0.942,1.533C0.334,1.39 0.033,-1.585 0.693,-1.532C1.113,-1.498 1.357,-0.209 1.316,0.687C1.292,1.202 1.174,1.588 0.942,1.533Z" style="fill:url(#_Linear17);fill-rule:nonzero;"/>
        </g>
        <g transform="matrix(14.9949,-16.628,-16.628,-14.9949,1235.06,827.347)">
            <path d="M0.414,0.418C0.41,0.414 0.405,0.41 0.4,0.405C0.247,0.25 0.108,0.085 -0.011,-0.068C-0.022,-0.084 -0.034,-0.099 -0.046,-0.114C0.409,-0.282 0.981,-0.34 1.054,-0.107C1.075,-0.041 1.047,0.028 0.986,0.096C0.876,0.218 0.656,0.335 0.414,0.418Z" style="fill:url(#_Linear18);fill-rule:nonzero;"/>
        </g>
        <g transform="matrix(5.68825,15.32,12.1202,-4.50017,1230.8,805.058)">
            <path d="M1.036,-1.573C1.644,-1.53 1.174,1.516 0.588,1.382C0.495,1.361 0.428,1.263 0.385,1.116C0.168,0.378 0.529,-1.609 1.036,-1.573Z" style="fill:url(#_Linear19);fill-rule:nonzero;"/>
        </g>
        <g transform="matrix(-10.8998,44.5681,44.5681,10.8998,1227.51,701.019)">
            <path d="M1.031,-0.003C1.029,0.21 -0.065,0.223 -0.03,0.015C-0.029,0.013 -0.029,0.012 -0.029,0.01C0.019,-0.184 1.033,-0.215 1.031,-0.003Z" style="fill:url(#_Linear20);fill-rule:nonzero;"/>
        </g>
        <g transform="matrix(1,0,0,1,1236.77,848.266)">
            <path d="M0,84.856L-29.711,84.856C-43.103,84.856 -54.431,74.953 -56.22,61.681L-63.593,7.002C-64.093,3.296 -61.211,0 -57.472,0L27.761,0C31.5,0 34.382,3.296 33.882,7.002L26.51,61.681C24.72,74.953 13.392,84.856 0,84.856" style="fill:rgb(0,51,78);fill-rule:nonzero;"/>
        </g>
        <g transform="matrix(384.984,0,0,-384.984,1207.71,509.69)">
            <path d="M0.03,0.343C0.013,0.343 -0,0.33 -0,0.314L-0,-0.314C-0,-0.33 0.013,-0.343 0.03,-0.343L0.97,-0.343C0.987,-0.343 1,-0.33 1,-0.314L1,0.314C1,0.33 0.987,0.343 0.97,0.343L0.03,0.343Z" style="fill:url(#_Linear21);fill-rule:nonzero;"/>
        </g>
        <g transform="matrix(1,0,0,1,1574.9,388.852)">
            <path d="M0,241.678L-349.409,241.678C-353.185,241.678 -356.245,238.617 -356.245,234.842L-356.245,6.837C-356.245,3.061 -353.185,0 -349.409,0L0,0C3.776,0 6.837,3.061 6.837,6.837L6.837,234.842C6.837,238.617 3.776,241.678 0,241.678" style="fill:white;fill-rule:nonzero;"/>
        </g>
        <g transform="matrix(32.2471,0,0,-32.2471,1608.32,827.59)">
            <path d="M0.002,-1.891C-0.018,-2.03 0.091,-2.155 0.231,-2.155C0.231,-2.155 0.444,-2.071 0.46,-1.957L1,2.104L0.548,2.155L0.002,-1.891Z" style="fill:url(#_Linear22);fill-rule:nonzero;"/>
        </g>
        <g transform="matrix(32.796,0,0,-32.796,1727.83,821.398)">
            <path d="M0,2.038L0.55,-2.016C0.577,-2.166 0.687,-2.152 0.798,-2.132C0.909,-2.111 1.022,-2.085 0.996,-1.938L0.373,2.187L0,2.038Z" style="fill:url(#_Linear23);fill-rule:nonzero;"/>
        </g>
        <g transform="matrix(30.445,0,0,-30.445,1683.3,830.764)">
            <path d="M-0,2.592L0.507,-2.387C0.519,-2.561 0.649,-2.536 0.778,-2.517C0.893,-2.499 1.01,-2.506 0.999,-2.352L0.495,2.592L-0,2.592Z" style="fill:url(#_Linear24);fill-rule:nonzero;"/>
        </g>
        <g transform="matrix(0,-201.507,-201.507,0,1688.75,760.441)">
            <path d="M0.994,0.261C0.992,0.359 0.882,0.387 0.815,0.387L0.023,0.391C-0.011,0.288 -0.013,0.067 -0.01,0.061C-0.003,-0.139 0.013,-0.311 0.13,-0.327C0.186,-0.335 0.335,-0.301 0.497,-0.327C0.779,-0.372 0.887,-0.353 0.985,-0.325C1,-0.276 1.004,-0.195 1.004,-0.105C1.004,0.021 0.995,0.165 0.994,0.261Z" style="fill:url(#_Linear25);fill-rule:nonzero;"/>
        </g>
        <g transform="matrix(18.3158,1.83158,1.83158,-18.3158,1748.35,663.899)">
            <path d="M-0.647,4.956C-0.135,3.809 -0.114,3.116 -0.449,1.144C-1.008,-2.142 0.598,-3.64 -2.288,-5.557C-0.451,-5.267 0.683,-4.866 0.721,-3.767C0.743,-3.148 0.216,-1.56 0.322,0.228C0.459,2.527 0.952,4.445 -0.059,5.447C-0.135,5.523 -0.226,5.55 -0.315,5.541C-0.552,5.517 -0.773,5.238 -0.647,4.956Z" style="fill:url(#_Linear26);fill-rule:nonzero;"/>
        </g>
        <g transform="matrix(1,0,0,1,1543.77,925.084)">
            <path d="M0,-16.687C-1.921,-14.429 -21.516,17.042 -21.516,17.042L-25.826,15.682C-25.826,15.682 -22.492,-0.485 -19.691,-9.115C-22.842,-9.53 -42.259,8.841 -45.81,10.617C-49.37,12.408 -75.498,2.212 -78.038,-3.682C-80.578,-9.576 -75.656,-14.86 -75.656,-14.86C-75.656,-14.86 -60.635,-12.723 -56.834,-13.637C-54.191,-7.772 -48.309,-6.953 -36.434,-12.167C-24.571,-17.378 -3.617,-33.729 -3.617,-33.729C-0.535,-27.983 1.934,-18.95 0,-16.687" style="fill:rgb(20,83,116);fill-rule:nonzero;"/>
        </g>
        <g transform="matrix(1,0,0,1,1549.38,910.253)">
            <path d="M0,-50.321C0,-50.321 -8.132,-38.612 -9.465,-32.478C-10.781,-26.336 -9.221,-18.898 -9.221,-18.898C-9.221,-18.898 -30.175,-2.548 -42.037,2.663C-53.912,7.878 -59.795,7.059 -62.438,1.194C-62.438,1.194 -47.766,-11.956 -37.422,-32.467C-27.077,-52.976 -25.273,-58.199 -25.273,-58.199L0,-50.321Z" style="fill:rgb(138,59,0);fill-rule:nonzero;"/>
        </g>
        <g transform="matrix(1,0,0,1,1647,892.459)">
            <path d="M0,-13.472C-2.341,-9.244 -7.358,19.412 -7.358,19.412L-11.826,19.412L-14.609,-4.108C-14.609,-4.108 -22.529,5.926 -23.305,11.05C-24.081,16.174 -27.318,19.519 -27.318,19.519C-27.318,19.519 -54.852,21.526 -58.531,18.515C-62.21,15.506 -60.658,9.151 -60.323,8.041C-59.989,6.929 -45.045,3.251 -45.045,3.251C-44.751,3.331 -44.47,3.411 -44.189,3.478C-28.456,7.572 -22.904,-5.432 -19.064,-10.462C-15.586,-15.037 -8.562,-30.972 -7.077,-34.357C-6.903,-34.771 -6.81,-34.998 -6.81,-34.998C-6.81,-34.998 -1.899,-29.527 0,-25.407C1.887,-21.285 2.342,-17.713 0,-13.472" style="fill:rgb(20,83,116);fill-rule:nonzero;"/>
        </g>
        <g transform="matrix(1,0,0,1,1639.92,884.794)">
            <path d="M0,-26.692C-1.484,-23.307 -8.509,-7.373 -11.987,-2.797C-15.827,2.233 -21.379,15.237 -37.112,11.143C-37.112,11.143 -32.617,2.433 -31.172,-7.145C-29.714,-16.738 -28.041,-22.197 -29.714,-30.892C-31.386,-39.588 -7.76,-41.929 -7.76,-41.929C-7.76,-41.929 -6.516,-30.411 0,-26.692" style="fill:rgb(138,59,0);fill-rule:nonzero;"/>
        </g>
        <g transform="matrix(-25.5946,-105.962,-105.962,25.5946,1680.04,577.682)">
            <path d="M1.38,-0.226C1.367,-0.173 1.267,-0.126 1.296,-0.056C1.324,0.014 1.375,-0.008 1.34,0.053C1.306,0.113 1.304,0.129 1.226,0.15L1.225,0.15C1.259,0.17 1.326,0.164 1.286,0.228C1.247,0.293 1.259,0.316 1.198,0.385C1.167,0.421 1.117,0.391 1.089,0.457C1.062,0.523 0.975,0.461 0.951,0.506C0.928,0.552 0.972,0.579 0.887,0.613C0.84,0.632 0.818,0.611 0.757,0.653C0.698,0.693 0.672,0.619 0.604,0.653C0.526,0.691 0.461,0.667 0.422,0.613C0.35,0.511 0.337,0.634 0.256,0.596C0.227,0.583 0.222,0.556 0.216,0.532C0.211,0.506 0.206,0.483 0.176,0.481C0.13,0.477 0.076,0.389 0.108,0.352C0.139,0.314 0.196,0.331 0.211,0.278C0.228,0.219 0.127,0.039 0.09,0.004C0.063,-0.022 0.052,-0.036 0.05,-0.058C0.049,-0.067 0.049,-0.077 0.05,-0.089C0.054,-0.132 0.036,-0.11 0.01,-0.141C-0.016,-0.172 -0.008,-0.244 0.04,-0.263C0.068,-0.274 0.056,-0.293 0.044,-0.316C0.035,-0.332 0.026,-0.35 0.028,-0.37C0.034,-0.419 0.151,-0.39 0.137,-0.456C0.124,-0.523 0.165,-0.567 0.224,-0.576C0.282,-0.586 0.344,-0.541 0.413,-0.545C0.481,-0.549 0.49,-0.536 0.545,-0.572C0.6,-0.608 0.586,-0.69 0.633,-0.664C0.68,-0.638 0.699,-0.69 0.778,-0.699C0.856,-0.708 0.831,-0.657 0.874,-0.625C0.916,-0.593 0.963,-0.651 1.036,-0.622C1.088,-0.601 1.091,-0.56 1.094,-0.52C1.095,-0.504 1.096,-0.488 1.101,-0.473C1.116,-0.422 1.157,-0.446 1.229,-0.396C1.302,-0.346 1.27,-0.371 1.294,-0.332C1.314,-0.299 1.371,-0.284 1.38,-0.247C1.382,-0.241 1.382,-0.234 1.38,-0.226Z" style="fill:url(#_Linear27);fill-rule:nonzero;"/>
        </g>
        <g transform="matrix(-0.756221,-0.654316,-0.654316,0.756221,1525.02,741.197)">
            <path d="M-63.988,-107.32C-53.226,-99.172 -24.718,-72.388 -14.199,-57.281C5.592,-28.835 -32.706,-11.997 -63.988,4.235C-60.212,-6.949 -34.418,-48.475 -34.141,-55.661C-33.586,-70.261 -56.102,-97.753 -63.988,-107.32" style="fill:rgb(0,51,78);fill-rule:nonzero;"/>
        </g>
        <g transform="matrix(1,0,0,1,1607.32,860.783)">
            <path d="M0,-109.228L-10.507,-93.26L-29.835,-63.882L0.996,0L26.732,-14.46L0,-109.228Z" style="fill:rgb(0,51,78);fill-rule:nonzero;"/>
        </g>
        <g transform="matrix(1,0,0,1,1658.23,676.076)">
            <path d="M0,-125.847C-22.435,-122.653 -32.048,-120.959 -40.999,-107.126C-51.839,-90.373 -64.162,-33.229 -64.162,-33.229L-74.456,-32.118L-69.218,-10.59C-69.533,-12.385 -64.346,-21.073 -40.202,-32.04C-38.275,-19.083 -35.494,-0.57 -35.494,0L-15.217,0C-16.296,-42.775 -17.577,-86.113 0,-125.847" style="fill:rgb(20,83,116);fill-rule:nonzero;"/>
        </g>
        <g transform="matrix(1,0,0,1,1686.74,676.076)">
            <path d="M0,-128.189L-24.011,-126.293L-44.238,-37.709C-44.37,-25.161 -44.042,-12.556 -43.726,0L-22.207,0C-33.7,-43.702 -14.447,-87.543 0,-128.189" style="fill:rgb(238,111,87);fill-rule:nonzero;"/>
        </g>
        <g transform="matrix(34.3984,-4.73138,-4.73138,-34.3984,1625.89,597.66)">
            <path d="M1.196,1.224L1.151,1.227C1.137,1.226 1.123,1.226 1.109,1.226C0.765,0.67 0.565,0.065 0.432,-0.56C0.386,-0.78 0.347,-1.003 0.314,-1.227L1.239,1.221L1.196,1.224Z" style="fill:url(#_Linear28);fill-rule:nonzero;"/>
        </g>
        <g transform="matrix(1,0,0,1,1725.89,881.254)">
            <path d="M0,-184.259L-98.271,-185.562C-98.271,-185.562 -137.108,-182.03 -149.998,-159.596C-151.662,-156.699 -161.978,-134.616 -161.978,-134.616C-178.899,-94.722 -208.5,-21.518 -211.831,-12.602L-182.729,1.303L-120.12,-106.363L-104.176,-123.406C-104.176,-123.406 -55.007,-125.82 -28.304,-135.197C12.994,-149.7 0,-184.259 0,-184.259" style="fill:rgb(0,51,78);fill-rule:nonzero;"/>
        </g>
        <g transform="matrix(-0.996112,-0.0880916,-0.0880916,0.996112,1605.23,693.843)">
            <path d="M-11.341,0.5C-11.341,0.5 -6.89,0.342 0.022,0.5" style="fill:none;fill-rule:nonzero;stroke:rgb(23,255,68);stroke-width:1.95px;"/>
        </g>
        <g transform="matrix(164.282,0,0,-164.282,1430.4,630.441)">
            <path d="M0.228,0.279C0.201,0.279 0.181,0.254 0.187,0.227L0.305,-0.279L0.948,-0.279L0.829,0.279L0.228,0.279Z" style="fill:url(#_Linear29);fill-rule:nonzero;"/>
        </g>
        <g transform="matrix(39.5616,-51.7343,-51.7343,-39.5616,1571.94,662.683)">
            <path d="M0.819,0.794L-0.032,-0.297L0.375,-0.829L0.445,-0.796C0.484,-0.778 0.496,-0.728 0.47,-0.694L0.122,-0.239C0.122,-0.239 0.122,-0.238 0.122,-0.238C0.123,-0.237 0.123,-0.236 0.124,-0.235L0.125,-0.234L0.339,0.03L0.902,0.728C0.918,0.747 0.918,0.774 0.903,0.794C0.882,0.821 0.84,0.822 0.819,0.794Z" style="fill:url(#_Linear30);fill-rule:nonzero;"/>
        </g>
        <g transform="matrix(0,-1,-1,0,1518.94,623.794)">
            <path d="M-8.861,-8.861C-13.755,-8.861 -17.721,-4.893 -17.721,-0C-17.721,4.893 -13.755,8.861 -8.861,8.861C-3.967,8.861 -0,4.893 -0,-0C-0,-4.893 -3.967,-8.861 -8.861,-8.861" style="fill:white;fill-rule:nonzero;"/>
        </g>
        <g transform="matrix(1,0,0,1,1615.34,662.619)">
            <path d="M0,-17.817C-26.68,-7.902 -26.815,1.402 -26.498,3.209L8.618,3.209C8.618,3.209 12.938,-1.74 20.175,-3.92L17.041,-21.026C9.634,-20.186 2.968,-19.077 0,-17.817" style="fill:rgb(138,59,0);fill-rule:nonzero;"/>
        </g>
        <g transform="matrix(1,0,0,1,1749.56,600.658)">
            <path d="M0,15.919C-0.002,4.305 -4.162,-30.977 -16.019,-43.919C-30.305,-59.499 -55.603,-53.076 -55.603,-53.076L-64.863,-52.417C-75.37,-22.855 -87.331,5.667 -88.657,37.224C-97.489,36.809 -105.591,37.092 -118.027,38.503L-113.551,65.17L-89.435,70.25C-89.435,70.25 -86.322,70.518 -85.033,75.418L-30.044,75.418C-25.585,75.418 -21.135,74.655 -17.017,72.944C-12.917,71.241 -8.584,68.427 -6.556,63.84C-2.994,55.775 0.004,41.479 0,15.919" style="fill:rgb(20,83,116);fill-rule:nonzero;"/>
        </g>
        <g transform="matrix(1,0,0,1,1681.15,662.901)">
            <path d="M0,-16.967C0,-16.967 11.163,-17.879 11.163,-8.535C11.163,0.808 0,0.912 0,0.912" style="fill:none;fill-rule:nonzero;stroke:rgb(214,217,232);stroke-width:5.49px;"/>
        </g>
        <g transform="matrix(34.2788,0,0,-34.2788,1650.78,654.365)">
            <path d="M0.112,0.633C0.046,0.633 -0.006,0.58 0,0.519L0.114,-0.633L0.924,-0.633L1,0.522C1.004,0.582 0.953,0.633 0.888,0.633L0.112,0.633Z" style="fill:url(#_Linear31);fill-rule:nonzero;"/>
        </g>
        <g transform="matrix(1,0,0,1,1807.52,693.501)">
            <path d="M0,225.446L-10.552,225.446C-13.716,225.446 -16.28,223.72 -16.28,221.592L-16.28,0L5.728,0L5.728,221.592C5.728,223.72 3.163,225.446 0,225.446" style="fill:rgb(0,51,78);fill-rule:nonzero;"/>
        </g>
        <g transform="matrix(1,0,0,1,1431.89,693.501)">
            <path d="M0,225.446L-13.739,225.446C-15.622,225.446 -17.148,224.346 -17.148,222.991L-17.148,0L3.409,0L3.409,222.991C3.409,224.346 1.883,225.446 0,225.446" style="fill:rgb(0,51,78);fill-rule:nonzero;"/>
        </g>
        <g transform="matrix(1,0,0,1,1825.43,676.116)">
            <path d="M0,23.108L-423.095,23.108L-423.095,10.451C-423.095,4.679 -418.416,0 -412.644,0L-10.451,0C-4.679,0 0,4.679 0,10.451L0,23.108Z" style="fill:rgb(0,51,78);fill-rule:nonzero;"/>
        </g>
        <g transform="matrix(1,0,0,1,1661.2,623.794)">
            <path d="M0,-79.341L-21.216,-73.565L-26.773,-55.515C-27.826,-52.095 -27.823,-48.437 -26.766,-45.018L-18.732,0C-18.732,0 -8.271,-66.779 0,-79.341" style="fill:rgb(20,83,116);fill-rule:nonzero;"/>
        </g>
        <g transform="matrix(1,0,0,1,1688.18,483.62)">
            <path d="M0,62.584C0,62.584 -0.163,55.918 -2.855,35.671C-2.896,35.364 -2.927,35.067 -2.968,34.78C-3.234,32.702 -3.531,29.211 -3.418,28.996C-3.347,28.873 -3.274,28.751 -3.214,28.627C2.633,18.195 1.64,11.346 -2.404,9.042C-2.923,8.743 -3.497,8.528 -4.109,8.382C-4.109,8.382 -2.5,-4.89 -7.913,-15.587C-15.079,-29.749 -35.492,-29.906 -47.948,-26.28C-60.44,-22.645 -71.306,-7.652 -67.036,6.161C-65.339,11.653 -62.777,16.649 -62.152,21.666C-61.508,26.692 -63.576,35.016 -59.716,43.165C-54.198,54.857 -41.564,57.98 -33.835,57.938C-32.739,57.928 -31.746,57.856 -30.887,57.744L-30.538,59.843L-29.798,64.926L-30.254,88.137C-30.312,91.05 -26.741,92.49 -24.76,90.354C-15.802,80.695 0.604,66.349 0,62.584" style="fill:rgb(138,59,0);fill-rule:nonzero;"/>
        </g>
        <g opacity="0.22">
            <g transform="matrix(1,0,0,1,1685.33,538.13)">
                <path d="M0,-18.839C-6.756,-2.854 -18.366,3.801 -27.406,7.043L-27.683,5.333L-28.031,3.234C-19.562,-1.404 -10.104,-10.021 -0.358,-25.882C-0.419,-25.759 -0.491,-25.637 -0.562,-25.514C-0.676,-25.299 -0.379,-21.808 -0.112,-19.73C-0.071,-19.443 -0.041,-19.146 0,-18.839" style="fill-rule:nonzero;"/>
            </g>
        </g>
        <g transform="matrix(3.46618,4.85278,4.85278,-3.46618,1686.86,490.527)">
            <path d="M-0.171,-0.36L1.37,-0.36C1.37,-0.36 0.784,0.625 0.1,0.547C-0.063,0.529 -0.164,0.468 -0.222,0.386C-0.411,0.122 -0.171,-0.36 -0.171,-0.36Z" style="fill:url(#_Linear32);fill-rule:nonzero;"/>
        </g>
        <g transform="matrix(1,0,0,1,1704.65,617.564)">
            <path d="M0,-69.888L-11.854,-68.054C-11.854,-68.054 -36.523,-38.22 -40.397,-3.74C-40.514,-2.702 -41.029,-0.725 -41.005,0C-23.499,-31.306 10.931,-54.117 10.931,-54.117L0,-69.888Z" style="fill:rgb(0,51,78);fill-rule:nonzero;"/>
        </g>
        <g transform="matrix(1,0,0,1,1702.82,614.008)">
            <path d="M0,-69.987L-11.854,-68.153C-11.854,-68.153 -34.709,-37.153 -38.583,-2.673C-38.699,-1.635 -38.586,-0.724 -38.562,0C-26.511,-34.069 10.931,-54.216 10.931,-54.216L0,-69.987Z" style="fill:rgb(20,83,116);fill-rule:nonzero;"/>
        </g>
        <g transform="matrix(-0.97213,-0.234443,-0.234443,0.97213,1690.99,542.376)">
            <path d="M-11.518,-1.505L-2.262,-1.505L-0.413,3.545L-11.889,-1.175L-11.518,-1.505Z" style="fill:rgb(33,26,73);fill-rule:nonzero;"/>
        </g>
        <g transform="matrix(1,0,0,1,1632.81,870.021)">
            <path d="M0,-168.345L-34.41,-154.805C-43.756,-151.127 -51.204,-143.807 -55.043,-134.527L-113.863,0" style="fill:none;fill-rule:nonzero;stroke:white;stroke-width:1px;"/>
        </g>
        <g transform="matrix(1,0,0,1,1615.57,480.448)">
            <path d="M0,2.845C0,1.929 0.049,0.977 0.195,0C0.073,1.807 0,2.845 0,2.845" style="fill:rgb(70,75,139);fill-rule:nonzero;"/>
        </g>
        <g transform="matrix(137.674,0,0,-137.674,1606.79,498.57)">
            <path d="M0.415,0.534C0.369,0.53 0.317,0.453 0.263,0.492C0.178,0.552 0.147,0.465 0.104,0.427C0.06,0.389 0.028,0.406 0.009,0.326C-0.011,0.243 -0.007,0.122 0.108,0.039C0.081,0.116 0.14,0.208 0.14,0.208C0.14,0.208 0.163,0.141 0.238,0.147C0.313,0.154 0.417,0.22 0.407,0.182C0.396,0.144 0.371,0.068 0.436,0.048C0.5,0.028 0.521,0.005 0.492,-0.022C0.463,-0.048 0.475,-0.081 0.505,-0.109C0.541,-0.141 0.479,-0.141 0.475,-0.197C0.471,-0.253 0.519,-0.235 0.534,-0.277C0.544,-0.306 0.406,-0.415 0.488,-0.447C0.534,-0.464 0.499,-0.518 0.569,-0.5C0.586,-0.495 0.592,-0.509 0.598,-0.523C0.605,-0.539 0.612,-0.555 0.635,-0.543C0.648,-0.536 0.666,-0.541 0.682,-0.547C0.703,-0.555 0.723,-0.563 0.726,-0.54C0.73,-0.516 0.748,-0.521 0.77,-0.527C0.785,-0.53 0.802,-0.534 0.818,-0.529C0.858,-0.515 0.849,-0.482 0.908,-0.48C0.966,-0.478 1.018,-0.402 0.994,-0.362C0.923,-0.246 0.998,-0.237 0.998,-0.182C0.998,-0.105 0.943,-0.097 0.962,-0.048C0.98,0.001 0.966,0.028 0.934,0.059C0.903,0.09 0.968,0.125 0.934,0.178C0.907,0.22 0.889,0.211 0.853,0.238C0.818,0.265 0.857,0.312 0.818,0.363C0.79,0.399 0.755,0.394 0.721,0.389C0.707,0.387 0.693,0.385 0.68,0.385C0.634,0.387 0.694,0.441 0.638,0.488C0.602,0.517 0.58,0.513 0.559,0.509C0.547,0.506 0.535,0.504 0.521,0.508C0.487,0.518 0.479,0.534 0.432,0.534C0.427,0.534 0.421,0.534 0.415,0.534Z" style="fill:url(#_Linear33);fill-rule:nonzero;"/>
        </g>
        <g transform="matrix(-0.116101,-0.993237,-0.993237,0.116101,1726.46,621.713)">
            <path d="M-25.33,14.886L12.352,14.886C12.352,14.886 10.263,20.723 5.063,21.813C-0.136,22.903 -21.255,26.575 -21.255,26.575L-25.33,14.886Z" style="fill:rgb(0,51,78);fill-rule:nonzero;"/>
        </g>
        <g transform="matrix(1,0,0,1,1626.09,644.037)">
            <path d="M0,-26.473L-8.065,0L0,-1.632L0,-26.473Z" style="fill:rgb(0,51,78);fill-rule:nonzero;"/>
        </g>
    </g>
    <defs>
        <linearGradient id="_Linear1" x1="0" y1="0" x2="1" y2="0" gradientUnits="userSpaceOnUse" gradientTransform="matrix(1,0,0,-1,0,0.0320215)"><stop offset="0" style="stop-color:rgb(240,242,245);stop-opacity:1"/><stop offset="0.99" style="stop-color:rgb(245,247,248);stop-opacity:1"/><stop offset="1" style="stop-color:rgb(245,247,248);stop-opacity:1"/></linearGradient>
        <linearGradient id="_Linear2" x1="0" y1="0" x2="1" y2="0" gradientUnits="userSpaceOnUse" gradientTransform="matrix(-26.3474,-199.93,199.93,-26.3474,34.9404,0.067)"><stop offset="0" style="stop-color:rgb(63,61,158);stop-opacity:1"/><stop offset="0.99" style="stop-color:rgb(66,62,159);stop-opacity:1"/><stop offset="1" style="stop-color:rgb(66,62,159);stop-opacity:1"/></linearGradient>
        <linearGradient id="_Linear3" x1="0" y1="0" x2="1" y2="0" gradientUnits="userSpaceOnUse" gradientTransform="matrix(85.8875,0.294055,-0.294055,85.8875,-1.3063,97.3978)"><stop offset="0" style="stop-color:rgb(186,198,216);stop-opacity:1"/><stop offset="0.99" style="stop-color:rgb(214,219,248);stop-opacity:1"/><stop offset="1" style="stop-color:rgb(214,219,248);stop-opacity:1"/></linearGradient>
        <linearGradient id="_Linear4" x1="0" y1="0" x2="1" y2="0" gradientUnits="userSpaceOnUse" gradientTransform="matrix(1,0,0,-1,0,-0.0117016)"><stop offset="0" style="stop-color:rgb(31,24,68);stop-opacity:1"/><stop offset="0.99" style="stop-color:rgb(61,60,153);stop-opacity:1"/><stop offset="1" style="stop-color:rgb(61,60,153);stop-opacity:1"/></linearGradient>
        <linearGradient id="_Linear5" x1="0" y1="0" x2="1" y2="0" gradientUnits="userSpaceOnUse" gradientTransform="matrix(1,0,0,-1,0,-0.0181906)"><stop offset="0" style="stop-color:rgb(31,24,68);stop-opacity:1"/><stop offset="0.99" style="stop-color:rgb(61,60,153);stop-opacity:1"/><stop offset="1" style="stop-color:rgb(61,60,153);stop-opacity:1"/></linearGradient>
        <linearGradient id="_Linear6" x1="0" y1="0" x2="1" y2="0" gradientUnits="userSpaceOnUse" gradientTransform="matrix(1,0,0,-1,0,0.0189536)"><stop offset="0" style="stop-color:rgb(31,24,68);stop-opacity:1"/><stop offset="0.99" style="stop-color:rgb(61,60,153);stop-opacity:1"/><stop offset="1" style="stop-color:rgb(61,60,153);stop-opacity:1"/></linearGradient>
        <linearGradient id="_Linear7" x1="0" y1="0" x2="1" y2="0" gradientUnits="userSpaceOnUse" gradientTransform="matrix(1,0,0,-1,0,0.0212745)"><stop offset="0" style="stop-color:rgb(31,24,68);stop-opacity:1"/><stop offset="0.99" style="stop-color:rgb(61,60,153);stop-opacity:1"/><stop offset="1" style="stop-color:rgb(61,60,153);stop-opacity:1"/></linearGradient>
        <linearGradient id="_Linear8" x1="0" y1="0" x2="1" y2="0" gradientUnits="userSpaceOnUse" gradientTransform="matrix(1,1.38778e-17,1.38778e-17,-1,0,-0.0324698)"><stop offset="0" style="stop-color:rgb(31,24,68);stop-opacity:1"/><stop offset="0.99" style="stop-color:rgb(61,60,153);stop-opacity:1"/><stop offset="1" style="stop-color:rgb(61,60,153);stop-opacity:1"/></linearGradient>
        <linearGradient id="_Linear9" x1="0" y1="0" x2="1" y2="0" gradientUnits="userSpaceOnUse" gradientTransform="matrix(1,5.55112e-17,5.55112e-17,-1,0,0.0130412)"><stop offset="0" style="stop-color:rgb(31,24,68);stop-opacity:1"/><stop offset="0.99" style="stop-color:rgb(61,60,153);stop-opacity:1"/><stop offset="1" style="stop-color:rgb(61,60,153);stop-opacity:1"/></linearGradient>
        <linearGradient id="_Linear10" x1="0" y1="0" x2="1" y2="0" gradientUnits="userSpaceOnUse" gradientTransform="matrix(1,2.77556e-17,2.77556e-17,-1,0,0.00734547)"><stop offset="0" style="stop-color:rgb(61,60,153);stop-opacity:1"/><stop offset="0.01" style="stop-color:rgb(61,60,153);stop-opacity:1"/><stop offset="1" style="stop-color:rgb(31,24,68);stop-opacity:1"/></linearGradient>
        <linearGradient id="_Linear11" x1="0" y1="0" x2="1" y2="0" gradientUnits="userSpaceOnUse" gradientTransform="matrix(1,5.55112e-17,5.55112e-17,-1,0,0.0506404)"><stop offset="0" style="stop-color:rgb(224,228,235);stop-opacity:1"/><stop offset="0.99" style="stop-color:rgb(243,246,253);stop-opacity:1"/><stop offset="1" style="stop-color:rgb(243,246,253);stop-opacity:1"/></linearGradient>
        <linearGradient id="_Linear12" x1="0" y1="0" x2="1" y2="0" gradientUnits="userSpaceOnUse" gradientTransform="matrix(1,5.55112e-17,5.55112e-17,-1,0,0.0259196)"><stop offset="0" style="stop-color:rgb(224,228,235);stop-opacity:1"/><stop offset="0.99" style="stop-color:rgb(243,246,253);stop-opacity:1"/><stop offset="1" style="stop-color:rgb(243,246,253);stop-opacity:1"/></linearGradient>
        <linearGradient id="_Linear13" x1="0" y1="0" x2="1" y2="0" gradientUnits="userSpaceOnUse" gradientTransform="matrix(1,5.55112e-17,5.55112e-17,-1,0,-0.102857)"><stop offset="0" style="stop-color:rgb(224,228,235);stop-opacity:1"/><stop offset="0.99" style="stop-color:rgb(243,246,253);stop-opacity:1"/><stop offset="1" style="stop-color:rgb(243,246,253);stop-opacity:1"/></linearGradient>
        <linearGradient id="_Linear14" x1="0" y1="0" x2="1" y2="0" gradientUnits="userSpaceOnUse" gradientTransform="matrix(-0.791377,0.611328,0.611328,0.791377,0.913611,-0.31178)"><stop offset="0" style="stop-color:rgb(187,192,217);stop-opacity:1"/><stop offset="0.01" style="stop-color:rgb(187,192,217);stop-opacity:1"/><stop offset="1" style="stop-color:rgb(214,219,248);stop-opacity:1"/></linearGradient>
        <linearGradient id="_Linear15" x1="0" y1="0" x2="1" y2="0" gradientUnits="userSpaceOnUse" gradientTransform="matrix(1,0,0,-1,0,-0.103736)"><stop offset="0" style="stop-color:rgb(224,228,235);stop-opacity:1"/><stop offset="0.99" style="stop-color:rgb(243,246,253);stop-opacity:1"/><stop offset="1" style="stop-color:rgb(243,246,253);stop-opacity:1"/></linearGradient>
        <linearGradient id="_Linear16" x1="0" y1="0" x2="1" y2="0" gradientUnits="userSpaceOnUse" gradientTransform="matrix(20.3104,-4.83205,4.83205,20.3104,-5.7404,-55.7864)"><stop offset="0" style="stop-color:rgb(224,228,235);stop-opacity:1"/><stop offset="0.99" style="stop-color:rgb(243,246,253);stop-opacity:1"/><stop offset="1" style="stop-color:rgb(243,246,253);stop-opacity:1"/></linearGradient>
        <linearGradient id="_Linear17" x1="0" y1="0" x2="1" y2="0" gradientUnits="userSpaceOnUse" gradientTransform="matrix(1,0,0,-1,0,0.00289636)"><stop offset="0" style="stop-color:rgb(224,228,235);stop-opacity:1"/><stop offset="0.99" style="stop-color:rgb(243,246,253);stop-opacity:1"/><stop offset="1" style="stop-color:rgb(243,246,253);stop-opacity:1"/></linearGradient>
        <linearGradient id="_Linear18" x1="0" y1="0" x2="1" y2="0" gradientUnits="userSpaceOnUse" gradientTransform="matrix(1,0,0,-1,0,0.0785498)"><stop offset="0" style="stop-color:rgb(187,192,217);stop-opacity:1"/><stop offset="0.01" style="stop-color:rgb(187,192,217);stop-opacity:1"/><stop offset="1" style="stop-color:rgb(214,219,248);stop-opacity:1"/></linearGradient>
        <linearGradient id="_Linear19" x1="0" y1="0" x2="1" y2="0" gradientUnits="userSpaceOnUse" gradientTransform="matrix(1,0,0,-1,0,-0.0937506)"><stop offset="0" style="stop-color:rgb(224,228,235);stop-opacity:1"/><stop offset="0.99" style="stop-color:rgb(243,246,253);stop-opacity:1"/><stop offset="1" style="stop-color:rgb(243,246,253);stop-opacity:1"/></linearGradient>
        <linearGradient id="_Linear20" x1="0" y1="0" x2="1" y2="0" gradientUnits="userSpaceOnUse" gradientTransform="matrix(1,2.77556e-17,2.77556e-17,-1,0,0.00736047)"><stop offset="0" style="stop-color:rgb(230,234,241);stop-opacity:1"/><stop offset="0.99" style="stop-color:rgb(243,246,253);stop-opacity:1"/><stop offset="1" style="stop-color:rgb(243,246,253);stop-opacity:1"/></linearGradient>
        <linearGradient id="_Linear21" x1="0" y1="0" x2="1" y2="0" gradientUnits="userSpaceOnUse" gradientTransform="matrix(1,0,0,-1,0,-2.74453e-06)"><stop offset="0" style="stop-color:rgb(187,191,217);stop-opacity:1"/><stop offset="0.01" style="stop-color:rgb(187,191,217);stop-opacity:1"/><stop offset="1" style="stop-color:rgb(214,219,248);stop-opacity:1"/></linearGradient>
        <linearGradient id="_Linear22" x1="0" y1="0" x2="1" y2="0" gradientUnits="userSpaceOnUse" gradientTransform="matrix(1,0,0,-1,0,-8.29222e-06)"><stop offset="0" style="stop-color:rgb(187,191,217);stop-opacity:1"/><stop offset="0.01" style="stop-color:rgb(187,191,217);stop-opacity:1"/><stop offset="1" style="stop-color:rgb(214,219,248);stop-opacity:1"/></linearGradient>
        <linearGradient id="_Linear23" x1="0" y1="0" x2="1" y2="0" gradientUnits="userSpaceOnUse" gradientTransform="matrix(1,0,0,-1,0,0.0216374)"><stop offset="0" style="stop-color:rgb(187,191,217);stop-opacity:1"/><stop offset="0.01" style="stop-color:rgb(187,191,217);stop-opacity:1"/><stop offset="1" style="stop-color:rgb(214,219,248);stop-opacity:1"/></linearGradient>
        <linearGradient id="_Linear24" x1="0" y1="0" x2="1" y2="0" gradientUnits="userSpaceOnUse" gradientTransform="matrix(1,0,0,-1,0,0.0306013)"><stop offset="0" style="stop-color:rgb(187,191,217);stop-opacity:1"/><stop offset="0.01" style="stop-color:rgb(187,191,217);stop-opacity:1"/><stop offset="1" style="stop-color:rgb(214,219,248);stop-opacity:1"/></linearGradient>
        <linearGradient id="_Linear25" x1="0" y1="0" x2="1" y2="0" gradientUnits="userSpaceOnUse" gradientTransform="matrix(1,0,0,-1,0,0.018404)"><stop offset="0" style="stop-color:rgb(214,219,248);stop-opacity:1"/><stop offset="0.99" style="stop-color:rgb(187,191,217);stop-opacity:1"/><stop offset="1" style="stop-color:rgb(187,191,217);stop-opacity:1"/></linearGradient>
        <linearGradient id="_Linear26" x1="0" y1="0" x2="1" y2="0" gradientUnits="userSpaceOnUse" gradientTransform="matrix(1,0,0,-1,0,-0.00726027)"><stop offset="0" style="stop-color:rgb(187,191,217);stop-opacity:1"/><stop offset="0.01" style="stop-color:rgb(187,191,217);stop-opacity:1"/><stop offset="1" style="stop-color:rgb(214,219,248);stop-opacity:1"/></linearGradient>
        <linearGradient id="_Linear27" x1="0" y1="0" x2="1" y2="0" gradientUnits="userSpaceOnUse" gradientTransform="matrix(1,-2.77556e-17,-2.77556e-17,-1,0,-0.0143409)"><stop offset="0" style="stop-color:rgb(70,75,139);stop-opacity:1"/><stop offset="0.78" style="stop-color:rgb(32,31,79);stop-opacity:1"/><stop offset="1" style="stop-color:rgb(32,31,79);stop-opacity:1"/></linearGradient>
        <linearGradient id="_Linear28" x1="0" y1="0" x2="1" y2="0" gradientUnits="userSpaceOnUse" gradientTransform="matrix(1,0,0,-1,0,-3.09834e-05)"><stop offset="0" style="stop-color:white;stop-opacity:1"/><stop offset="0.99" style="stop-color:rgb(187,191,217);stop-opacity:1"/><stop offset="1" style="stop-color:rgb(187,191,217);stop-opacity:1"/></linearGradient>
        <linearGradient id="_Linear29" x1="0" y1="0" x2="1" y2="0" gradientUnits="userSpaceOnUse" gradientTransform="matrix(1,0,0,-1,0,-3.68877e-06)"><stop offset="0" style="stop-color:rgb(187,191,217);stop-opacity:1"/><stop offset="0.01" style="stop-color:rgb(187,191,217);stop-opacity:1"/><stop offset="1" style="stop-color:white;stop-opacity:1"/></linearGradient>
        <linearGradient id="_Linear30" x1="0" y1="0" x2="1" y2="0" gradientUnits="userSpaceOnUse" gradientTransform="matrix(1,5.55112e-17,5.55112e-17,-1,0,-0.00698348)"><stop offset="0" style="stop-color:white;stop-opacity:1"/><stop offset="0.99" style="stop-color:rgb(187,191,217);stop-opacity:1"/><stop offset="1" style="stop-color:rgb(187,191,217);stop-opacity:1"/></linearGradient>
        <linearGradient id="_Linear31" x1="0" y1="0" x2="1" y2="0" gradientUnits="userSpaceOnUse" gradientTransform="matrix(1,0,0,-1,0,-2.07942e-05)"><stop offset="0" style="stop-color:white;stop-opacity:1"/><stop offset="0.99" style="stop-color:rgb(187,191,217);stop-opacity:1"/><stop offset="1" style="stop-color:rgb(187,191,217);stop-opacity:1"/></linearGradient>
        <linearGradient id="_Linear32" x1="0" y1="0" x2="1" y2="0" gradientUnits="userSpaceOnUse" gradientTransform="matrix(0.155186,-0.987885,-0.987885,-0.155186,0.434918,0.508572)"><stop offset="0" style="stop-color:rgb(117,50,0);stop-opacity:1"/><stop offset="1" style="stop-color:rgb(160,68,0);stop-opacity:1"/></linearGradient>
        <linearGradient id="_Linear33" x1="0" y1="0" x2="1" y2="0" gradientUnits="userSpaceOnUse" gradientTransform="matrix(1,0,0,-1,0,-0.0104424)"><stop offset="0" style="stop-color:rgb(32,31,79);stop-opacity:1"/><stop offset="0.22" style="stop-color:rgb(32,31,79);stop-opacity:1"/><stop offset="1" style="stop-color:rgb(70,75,139);stop-opacity:1"/></linearGradient>
    </defs>
</svg>
