<?xml version="1.0" encoding="UTF-8" standalone="no"?>
<!DOCTYPE svg PUBLIC "-//W3C//DTD SVG 1.1//EN" "http://www.w3.org/Graphics/SVG/1.1/DTD/svg11.dtd">
<svg width="100%" height="100%" viewBox="0 0 518 464" version="1.1" xmlns="http://www.w3.org/2000/svg" xmlns:xlink="http://www.w3.org/1999/xlink" xml:space="preserve" xmlns:serif="http://www.serif.com/" style="fill-rule:evenodd;clip-rule:evenodd;stroke-linecap:round;stroke-miterlimit:10;">
    <g transform="matrix(1,0,0,1,-7737.85,-1680)">
        <g transform="matrix(517.07,0,0,-517.07,7737.85,1915.39)">
            <g>
                <path d="M0.111,0.024C0.294,-0.07 0.026,-0.187 0.218,-0.304C0.412,-0.423 0.827,-0.412 0.929,-0.319C1.031,-0.227 1.004,-0.065 0.966,0.012C0.878,0.192 0.627,0.455 0.301,0.455L0.299,0.455C-0.04,0.455 -0.073,0.118 0.111,0.024Z" style="fill:url(#_Linear1);fill-rule:nonzero;"/>
            </g>
        </g>
        <g transform="matrix(1,0,0,1,8174.04,1692.29)">
            <g>
                <path d="M0,237.426L-330.195,237.426C-337.653,237.426 -343.698,231.38 -343.698,223.922L-343.698,13.504C-343.698,6.046 -337.653,0 -330.195,0L0,0C7.458,0 13.504,6.046 13.504,13.504L13.504,223.922C13.504,231.38 7.458,237.426 0,237.426" style="fill:rgb(20,83,116);fill-rule:nonzero;"/>
            </g>
        </g>
        <g transform="matrix(1,0,0,1,8169.32,1702.47)">
            <g>
                <path d="M0,217.053L-320.758,217.053C-325.21,217.053 -328.819,213.444 -328.819,208.991L-328.819,8.062C-328.819,3.61 -325.21,0 -320.758,0L0,0C4.453,0 8.062,3.61 8.062,8.062L8.062,208.991C8.062,213.444 4.453,217.053 0,217.053" style="fill:white;fill-rule:nonzero;"/>
            </g>
        </g>
        <g transform="matrix(1,0,0,1,8037.55,1725.06)">
            <g>
                <path d="M0,85.407L-143.437,85.407C-148.09,85.407 -151.861,81.635 -151.861,76.981L-151.861,8.425C-151.861,3.771 -148.09,0 -143.437,0L0,0C4.653,0 8.425,3.771 8.425,8.425L8.425,76.981C8.425,81.635 4.653,85.407 0,85.407" style="fill:rgb(246,245,245);fill-rule:nonzero;"/>
            </g>
        </g>
        <g transform="matrix(1,0,0,1,7896.08,1833.24)">
            <g>
                <path d="M0,23.261L139.517,23.261C145.252,23.261 149.901,18.612 149.901,12.876L149.901,10.386C149.901,4.65 145.252,0 139.517,0L0,0C-5.735,0 -10.385,4.65 -10.385,10.386L-10.385,12.876C-10.385,18.612 -5.735,23.261 0,23.261" style="fill:rgb(246,245,245);fill-rule:nonzero;"/>
            </g>
        </g>
        <g transform="matrix(1,0,0,1,7896.08,1866.65)">
            <g>
                <path d="M0,23.26L139.517,23.26C145.252,23.26 149.901,18.611 149.901,12.875L149.901,10.385C149.901,4.65 145.252,0 139.517,0L0,0C-5.735,0 -10.385,4.65 -10.385,10.385L-10.385,12.875C-10.385,18.611 -5.735,23.26 0,23.26" style="fill:rgb(246,245,245);fill-rule:nonzero;"/>
            </g>
        </g>
        <g transform="matrix(-0.703174,-0.711018,-0.711018,0.703174,8054.45,1737.96)">
            <g>
                <path d="M-21.393,-51.236C-21.344,-51.188 -21.294,-51.143 -21.246,-51.095C-4.772,-34.437 -4.862,-7.62 -21.393,8.934L-51.476,-21.484L-21.393,-51.236Z" style="fill:rgb(246,245,245);fill-rule:nonzero;"/>
            </g>
        </g>
        <g transform="matrix(1,0,0,1,8070.16,1810.53)">
            <g>
                <path d="M0,-42.856C-0.001,-42.765 -0.007,-42.676 -0.007,-42.585C-0.007,-19.066 19.059,0 42.578,0C42.646,0 42.713,-0.004 42.781,-0.005L42.781,-42.856L0,-42.856Z" style="fill:rgb(246,245,245);fill-rule:nonzero;"/>
            </g>
        </g>
        <g transform="matrix(1,0,0,1,8112.95,1767.68)">
            <g>
                <path d="M0,-42.31L0,0L42.376,0C42.23,-23.327 23.335,-42.201 0,-42.31" style="fill:rgb(246,245,245);fill-rule:nonzero;"/>
            </g>
        </g>
        <g transform="matrix(0,1,1,0,8155.56,1767.91)">
            <g>
                <path d="M-0.234,-42.617L42.617,-42.617C42.507,-19.191 23.488,-0.234 0.037,-0.234C-0.054,-0.234 -0.143,-0.24 -0.234,-0.241L-0.234,-42.617Z" style="fill:rgb(246,245,245);fill-rule:nonzero;"/>
            </g>
        </g>
        <g transform="matrix(1,0,0,1,8070.16,1843.08)">
            <g>
                <path d="M0,0L89.62,0" style="fill:none;fill-rule:nonzero;stroke:url(#_Linear2);stroke-width:9.91px;"/>
            </g>
        </g>
        <g transform="matrix(1,0,0,1,8070.16,1878.28)">
            <g>
                <path d="M0,0L89.62,0" style="fill:none;fill-rule:nonzero;stroke:url(#_Linear3);stroke-width:9.91px;"/>
            </g>
        </g>
        <g transform="matrix(1,0,0,1,7943.33,1900.47)">
            <g>
                <path d="M0,98.266C-1.575,99.317 -3.135,100.255 -4.658,101.099C-17.231,108.101 -27.944,108.575 -36.229,106.671C-43.42,105.027 -48.785,101.581 -51.954,99.067C-54.106,97.353 -58.223,95.269 -58.223,95.269C-58.223,95.269 -64.294,42.575 -64.294,23.742C-64.294,10.049 -58.499,-4.591 -56.51,-9.233C-46.787,-6.366 -22.52,-0.974 -0.723,-10.309C18.524,25.058 6.648,71.802 0,98.266" style="fill:rgb(0,51,78);fill-rule:nonzero;"/>
            </g>
        </g>
        <g transform="matrix(-20.7213,9.39363,9.39363,20.7213,7922.31,2048.78)">
            <g>
                <path d="M0.983,-1.158C0.981,-1.16 1.343,0.854 1.255,0.942C1.321,1.739 1.306,2.467 1.306,2.467L0.883,2.533C0.883,2.533 0.363,0.943 0.025,-0.202C-0.306,-0.685 0.147,-1.867 -0.147,-1.943C0.111,-2.139 0.263,-2.375 0.345,-2.533C0.529,-2.221 0.827,-1.676 0.983,-1.158Z" style="fill:url(#_Linear4);fill-rule:nonzero;"/>
            </g>
        </g>
        <g transform="matrix(53.5646,0,0,-53.5646,7885.11,2054.14)">
            <g>
                <path d="M0.411,0.877C-0.031,0.52 0.033,-0.313 0.001,-0.899L0,-0.923L0.175,-0.981C0.175,-0.981 0.277,-0.744 0.366,-0.462L0.366,-0.461C0.709,0.64 1,0.701 1,0.981C0.765,0.851 0.565,0.842 0.411,0.877Z" style="fill:url(#_Linear5);fill-rule:nonzero;"/>
            </g>
        </g>
        <g transform="matrix(1,0,0,1,7996.07,1867.04)">
            <g>
                <path d="M0,-32.789C0,-32.789 -9.413,-12.698 -20.401,-8.298C-31.39,-3.905 -54.321,-27.831 -54.321,-27.831C-54.321,-27.831 -61.749,-16.336 -60.874,-7.748C-59.999,0.84 -55.444,16.851 -48.219,25.953C-73.925,44.083 -116.927,28.429 -116.927,28.429L-108.886,10.898L-106.267,-4.997L-112.877,-27.227L-124.93,-7.049L-113.631,4.258L-114.776,5.688L-125.18,18.691L-126.187,19.949C-126.187,19.949 -147.535,5.825 -147.845,-2.614C-148.164,-11.053 -126.265,-52.329 -122.027,-61.268C-119.151,-67.348 -111.159,-72.429 -99.095,-75.004C-93.411,-76.218 -86.814,-76.872 -79.417,-76.811C-77.936,-76.804 -76.472,-76.674 -75.017,-76.45C-48.699,-72.429 -26.998,-35.924 -26.998,-35.924L-17.896,-49.108L-14.605,-46.111L-3.065,-35.588L0,-32.789Z" style="fill:rgb(238,111,87);fill-rule:nonzero;"/>
            </g>
        </g>
        <g transform="matrix(7.03071,14.6983,14.6983,-7.03071,7875.52,1873.85)">
            <g>
                <path d="M0.535,-0.571C0.678,-0.44 0.909,-0.221 1.061,-0.033L0.535,0.538L0.09,0.35L0.535,-0.571Z" style="fill:url(#_Linear6);fill-rule:nonzero;"/>
            </g>
        </g>
        <g transform="matrix(24.1032,0,0,-24.1032,7981.47,1797.76)">
            <g>
                <path d="M0.484,1.386C0.349,1.277 0.544,0.972 0.546,0.933C0.547,0.889 0.554,0.635 0.476,0.605C0.398,0.576 0.29,0.884 0.235,0.903C0.179,0.923 0.153,0.884 0.173,0.752C0.193,0.62 0.383,0.312 0.427,0.166C0.471,0.019 0.559,0.083 0.544,-0.088C0.533,-0.222 0.163,-0.735 -0,-0.961L0.479,-1.398C0.617,-1.028 0.898,-0.274 0.95,-0.142C1.018,0.034 1.003,0.556 0.984,0.708C0.964,0.859 0.988,0.878 0.885,0.937C0.783,0.995 0.847,1.011 0.774,1.06C0.7,1.108 0.678,1.074 0.678,1.074C0.678,1.074 0.613,1.256 0.57,1.362C0.561,1.385 0.539,1.398 0.517,1.398C0.506,1.398 0.494,1.394 0.484,1.386Z" style="fill:url(#_Linear7);fill-rule:nonzero;"/>
            </g>
        </g>
        <g transform="matrix(48.4427,0,0,-48.4427,7895.53,1765.55)">
            <g>
                <path d="M0.655,0.431C0.598,0.379 0.604,0.379 0.65,0.271C0.695,0.162 0.684,0.122 0.612,0.042C0.539,-0.038 0.444,-0.015 0.458,-0.13C0.472,-0.244 0.278,-0.273 0.169,-0.267C0.151,-0.266 0.075,-0.253 0.054,-0.249L-0,-0.562C0.138,-0.533 0.298,-0.517 0.478,-0.518C0.514,-0.519 0.55,-0.522 0.585,-0.527C0.558,-0.423 0.536,-0.335 0.573,-0.268C0.63,-0.165 0.71,-0.173 0.827,-0.101C0.904,-0.054 1.084,0.219 0.954,0.505C0.916,0.509 0.918,0.431 0.861,0.408C0.804,0.385 0.787,0.488 0.752,0.562C0.752,0.562 0.713,0.482 0.655,0.431Z" style="fill:url(#_Linear8);fill-rule:nonzero;"/>
            </g>
        </g>
        <g transform="matrix(1,0,0,1,7950.55,1725.3)">
            <g>
                <path d="M0,7.195C-3.324,11.35 -2.493,10.802 -3.881,13.012C-5.27,15.231 -6.932,16.062 -8.786,15.819L-8.796,15.819C-10.65,15.596 -10.539,19.386 -13.296,20.491C-16.072,21.605 -16.903,16.62 -18.565,13.012C-18.565,13.012 -20.501,16.893 -23.277,19.386C-26.044,21.88 -25.771,21.88 -23.552,27.149C-21.332,32.409 -21.89,34.344 -25.396,38.225C-28.912,42.107 -33.523,40.992 -32.834,46.536C-32.135,52.079 -41.56,53.467 -46.819,53.183C-47.681,53.143 -48.644,53.021 -49.667,52.849C-54.855,51.998 -61.503,49.91 -64.28,50.143C-67.604,50.417 -73.694,47.092 -75.356,42.654C-77.019,38.225 -81.174,37.668 -83.667,35.732C-86.159,33.797 -85.329,30.189 -84.224,24.098C-83.119,17.998 -87.548,19.113 -90.872,17.167C-94.196,15.231 -90.041,11.907 -86.99,6.091C-83.95,0.273 -90.872,1.378 -90.872,-3.334C-90.872,-8.036 -86.717,-8.036 -83.393,-9.152C-80.069,-10.256 -81.457,-16.904 -78.407,-22.173C-75.356,-27.433 -67.604,-22.448 -67.878,-28.548C-68.151,-34.638 -66.216,-33.807 -62.061,-35.196C-57.906,-36.575 -59.396,-35.143 -55.018,-40.082C-49.53,-46.272 -44.094,-38.365 -35.5,-38.638C-26.917,-38.911 -29.095,-39.898 -24.108,-38.236C-19.112,-36.575 -16.62,-28.822 -14.958,-26.045C-13.296,-23.279 -6.374,-23.279 -4.985,-21.059C-3.607,-18.85 -4.154,-12.475 -1.936,-9.708C0.273,-6.932 3.051,-6.374 0,-3.608C-3.05,-0.841 3.324,3.04 0,7.195" style="fill:rgb(0,51,78);fill-rule:nonzero;"/>
            </g>
        </g>
        <g transform="matrix(1,0,0,1,7947.72,2109.31)">
            <g>
                <path d="M0,31.459C-0.018,31.477 -0.034,31.485 -0.052,31.493C-1.542,30.667 -11.867,24.975 -16.233,21.702C-20.505,18.498 -26.627,18.49 -29.831,20.901C-30.158,21.143 -30.451,21.409 -30.709,21.702C-32.199,15.209 -31.329,7.769 -30.494,3.195L-18.895,-0.034C-17.86,3.325 -16.155,8.414 -13.994,13.22C-10.575,20.823 -1.188,30.279 0,31.459" style="fill:rgb(0,51,78);fill-rule:nonzero;"/>
            </g>
        </g>
        <g transform="matrix(1,0,0,1,7947.66,2133.52)">
            <g>
                <path d="M0,7.282C-9.785,13.734 -19.276,6.512 -19.276,6.512L-18.383,10.477L-25.811,10.477C-25.811,10.477 -26.539,8.554 -27.127,7.377C-28.616,4.397 -30.305,0.408 -30.684,-2.623C-26.997,-6.452 -20.453,-5.713 -16.182,-2.509C-11.815,0.763 -1.49,6.456 0,7.282" style="fill:rgb(0,51,78);fill-rule:nonzero;"/>
            </g>
        </g>
        <g transform="matrix(1,0,0,1,7914.66,2102.43)">
            <g>
                <path d="M0,40.938C0,40.938 -3.186,41.231 -8.525,41.369L-8.551,41.369C-9.094,41.386 -9.662,41.403 -10.248,41.412C-16.603,41.524 -18.127,34.936 -20.607,28.227C-23.079,21.519 -33.172,15.991 -38.364,19.625C-38.219,18.797 -38.063,18.118 -37.942,17.609C-37.926,17.541 -37.908,17.471 -37.891,17.403C-37.753,16.851 -37.658,16.55 -37.658,16.55C-35.833,10.41 -32.67,2.927 -30.457,-0.586C-30.5,0.249 -19.169,4.606 -19.169,4.606C-18.799,9.316 -17.171,13.966 -15.776,17.514C-14.011,21.984 -6.717,37.167 -3.298,37.287C0.112,37.408 0,40.938 0,40.938" style="fill:rgb(0,51,78);fill-rule:nonzero;"/>
            </g>
        </g>
        <g transform="matrix(1,0,0,1,7906.11,2118.96)">
            <g>
                <path d="M0,24.844C-3.729,25.378 -12.47,24.681 -13.839,24.293C-15.501,23.828 -15.234,17.938 -17.585,17.584C-19.937,17.232 -19.583,24.293 -19.583,24.293L-30.58,24.293C-30.58,24.293 -30.185,21.115 -30.537,13.468C-30.735,9.205 -30.271,5.529 -29.813,3.1C-24.621,-0.534 -14.528,4.994 -12.057,11.702C-9.576,18.411 -8.052,24.999 -1.697,24.887C-1.111,24.878 -0.543,24.862 0,24.844" style="fill:rgb(0,51,78);fill-rule:nonzero;"/>
            </g>
        </g>
    </g>
    <defs>
        <linearGradient id="_Linear1" x1="0" y1="0" x2="1" y2="0" gradientUnits="userSpaceOnUse" gradientTransform="matrix(1,0,0,1,0,0.0320232)"><stop offset="0" style="stop-color:rgb(240,242,245);stop-opacity:1"/><stop offset="0.99" style="stop-color:rgb(245,247,248);stop-opacity:1"/><stop offset="1" style="stop-color:rgb(245,247,248);stop-opacity:1"/></linearGradient>
        <linearGradient id="_Linear2" x1="0" y1="0" x2="1" y2="0" gradientUnits="userSpaceOnUse" gradientTransform="matrix(99.5287,0,0,99.5287,-4.9582,-0.0001)"><stop offset="0" style="stop-color:rgb(240,242,245);stop-opacity:1"/><stop offset="0.99" style="stop-color:rgb(245,247,248);stop-opacity:1"/><stop offset="1" style="stop-color:rgb(245,247,248);stop-opacity:1"/></linearGradient>
        <linearGradient id="_Linear3" x1="0" y1="0" x2="1" y2="0" gradientUnits="userSpaceOnUse" gradientTransform="matrix(99.5287,0,0,99.5287,-4.9582,-0.0003)"><stop offset="0" style="stop-color:rgb(240,242,245);stop-opacity:1"/><stop offset="0.99" style="stop-color:rgb(245,247,248);stop-opacity:1"/><stop offset="1" style="stop-color:rgb(245,247,248);stop-opacity:1"/></linearGradient>
        <linearGradient id="_Linear4" x1="0" y1="0" x2="1" y2="0" gradientUnits="userSpaceOnUse" gradientTransform="matrix(1,-5.55112e-17,5.55112e-17,1,0,4.99524e-05)"><stop offset="0" style="stop-color:rgb(117,50,0);stop-opacity:1"/><stop offset="1" style="stop-color:rgb(160,68,0);stop-opacity:1"/></linearGradient>
        <linearGradient id="_Linear5" x1="0" y1="0" x2="1" y2="0" gradientUnits="userSpaceOnUse" gradientTransform="matrix(1,0,0,1,0,-2.03567e-05)"><stop offset="0" style="stop-color:rgb(117,50,0);stop-opacity:1"/><stop offset="1" style="stop-color:rgb(160,68,0);stop-opacity:1"/></linearGradient>
        <linearGradient id="_Linear6" x1="0" y1="0" x2="1" y2="0" gradientUnits="userSpaceOnUse" gradientTransform="matrix(0.43151,0.902108,-0.902108,0.43151,0.284202,-0.450986)"><stop offset="0" style="stop-color:rgb(117,50,0);stop-opacity:1"/><stop offset="1" style="stop-color:rgb(160,68,0);stop-opacity:1"/></linearGradient>
        <linearGradient id="_Linear7" x1="0" y1="0" x2="1" y2="0" gradientUnits="userSpaceOnUse" gradientTransform="matrix(1,0,0,1,0,1.98563e-05)"><stop offset="0" style="stop-color:rgb(117,50,0);stop-opacity:1"/><stop offset="1" style="stop-color:rgb(160,68,0);stop-opacity:1"/></linearGradient>
        <linearGradient id="_Linear8" x1="0" y1="0" x2="1" y2="0" gradientUnits="userSpaceOnUse" gradientTransform="matrix(1,0,0,1,0,1.69726e-05)"><stop offset="0" style="stop-color:rgb(117,50,0);stop-opacity:1"/><stop offset="1" style="stop-color:rgb(160,68,0);stop-opacity:1"/></linearGradient>
    </defs>
</svg>
