<?xml version="1.0" encoding="UTF-8" standalone="no"?>
<!DOCTYPE svg PUBLIC "-//W3C//DTD SVG 1.1//EN" "http://www.w3.org/Graphics/SVG/1.1/DTD/svg11.dtd">
<svg width="100%" height="100%" viewBox="0 0 608 514" version="1.1" xmlns="http://www.w3.org/2000/svg" xmlns:xlink="http://www.w3.org/1999/xlink" xml:space="preserve" xmlns:serif="http://www.serif.com/" style="fill-rule:evenodd;clip-rule:evenodd;stroke-miterlimit:10;">
    <g transform="matrix(1,0,0,1,-3335.93,-1638)">
        <g transform="matrix(1,0,0,1,2160,1215)">
            <g transform="matrix(607.073,0,0,-607.073,1175.93,699.361)">
                <path d="M0.111,0.024C0.294,-0.07 0.026,-0.187 0.218,-0.304C0.412,-0.423 0.827,-0.412 0.929,-0.319C1.031,-0.227 1.004,-0.065 0.966,0.012C0.878,0.192 0.627,0.455 0.301,0.455C0.3,0.455 0.3,0.455 0.299,0.455C-0.04,0.455 -0.073,0.118 0.111,0.024Z" style="fill:url(#_Linear1);fill-rule:nonzero;"/>
            </g>
        </g>
        <g transform="matrix(1,0,0,1,2160,1215)">
            <g transform="matrix(1,0,0,1,1261.55,686.674)">
                <path d="M0,152.192C0,152.192 20.572,129.296 18.39,120.267C16.207,111.238 28.97,100.281 29.22,87.134C29.503,72.247 21.548,76.226 18.796,69.861C14.717,60.425 23.798,52.069 10.065,48.458C0.687,45.992 -5.904,50.802 -5.048,39.201C-4.192,27.598 -8.391,13.243 -15.904,8.03C-26.638,0.584 -48.473,0 -41.119,15.008C-33.392,30.781 -40.202,56.757 -42.003,63.871C-61.041,139.051 0,152.192 0,152.192" style="fill:rgb(211,94,79);fill-rule:nonzero;"/>
            </g>
        </g>
        <g transform="matrix(1,0,0,1,2160,1215)">
            <g transform="matrix(1,0,0,1,1238.6,834.138)">
                <path d="M0,-123.965C2.356,-104.555 26.696,-73.542 15.665,-52.813C4.634,-32.084 21.355,0 21.355,0" style="fill:none;fill-rule:nonzero;stroke:url(#_Linear2);stroke-width:0.73px;"/>
            </g>
        </g>
        <g transform="matrix(1,0,0,1,2160,1215)">
            <g transform="matrix(1,0,0,1,1323.89,762.714)">
                <path d="M0,32.791C-13.359,37.514 1.104,54.796 -13.504,62.581C-28.106,70.365 -46.844,74.311 -47.704,70.533C-47.766,70.281 -48.55,67.775 -49.38,64.111C-49.57,63.267 -49.761,62.353 -49.951,61.393C-49.997,61.126 -50.051,60.852 -50.104,60.577C-50.599,57.866 -51.025,54.834 -51.208,51.734C-51.216,51.643 -51.216,51.552 -51.224,51.46C-51.292,50.279 -51.314,49.091 -51.292,47.91C-51.269,46.769 -51.208,45.641 -51.086,44.536C-50.652,40.332 -49.448,36.455 -46.988,33.675C-46.363,32.959 -45.655,32.318 -44.855,31.763C-34.702,24.702 -30.65,28.13 -30.727,17.694C-30.863,-0.19 -25.768,-2.864 -19.773,-1.097C-13.778,0.671 -9.094,1.166 -8.218,-5.446C-7.335,-12.058 -12.75,-41.52 0.861,-41.467C24.443,-41.391 12.522,-11.288 10.139,-6.405C4.426,5.302 16.309,7.138 19.134,15.668C21.952,24.199 13.353,28.068 0,32.791" style="fill:rgb(20,83,116);fill-rule:nonzero;"/>
            </g>
        </g>
        <g transform="matrix(1,0,0,1,2160,1215)">
            <g transform="matrix(1,0,0,1,1273.57,737.289)">
                <path d="M0,121.655C0,121.655 -3.588,88.733 21.501,70.285C32.837,61.95 53.907,32.19 52,0" style="fill:rgb(20,83,116);fill-rule:nonzero;"/>
            </g>
        </g>
        <g transform="matrix(1,0,0,1,2160,1215)">
            <g transform="matrix(-21.2656,-20.8957,-20.8957,21.2656,1259.78,788.846)">
                <path d="M1.016,-0.011C0.969,0.179 -0.02,0.198 -0.001,-0.009C0.015,-0.194 0.854,-0.209 0.997,-0.068C1.014,-0.051 1.022,-0.032 1.016,-0.011Z" style="fill:url(#_Linear3);fill-rule:nonzero;"/>
            </g>
        </g>
        <g transform="matrix(1,0,0,1,2160,1215)">
            <g transform="matrix(-24.7464,-8.61543,-8.61543,24.7464,1259.19,806.608)">
                <path d="M1.072,-0.01C1.014,0.206 -0.005,0.215 0.021,-0.022C0.041,-0.202 0.675,-0.233 0.95,-0.137C1.036,-0.107 1.087,-0.065 1.072,-0.01Z" style="fill:url(#_Linear4);fill-rule:nonzero;"/>
            </g>
        </g>
        <g transform="matrix(1,0,0,1,2160,1215)">
            <g transform="matrix(22.5041,-17.7082,-17.7082,-22.5041,1261.53,788.969)">
                <path d="M-0.035,0.001C-0.017,-0.214 1.073,-0.165 1.022,0.041C1.018,0.058 1.006,0.073 0.989,0.087C0.804,0.233 -0.051,0.198 -0.035,0.001Z" style="fill:url(#_Linear5);fill-rule:nonzero;"/>
            </g>
        </g>
        <g transform="matrix(1,0,0,1,2160,1215)">
            <g transform="matrix(21.8443,-10.4632,-10.4632,-21.8443,1259.78,806.654)">
                <path d="M-0.022,0.02C0.013,-0.233 1.068,-0.214 0.999,0.027C0.988,0.066 0.95,0.099 0.895,0.126C0.625,0.255 -0.052,0.23 -0.022,0.02Z" style="fill:url(#_Linear6);fill-rule:nonzero;"/>
            </g>
        </g>
        <g transform="matrix(1,0,0,1,2160,1215)">
            <g transform="matrix(-29.0835,-3.47538,-3.47538,29.0835,1263.34,823.569)">
                <path d="M0.994,-0.03C0.934,0.148 -0.031,0.165 0.001,-0.031C0.021,-0.156 0.442,-0.197 0.73,-0.163C0.895,-0.143 1.017,-0.098 0.994,-0.03Z" style="fill:url(#_Linear7);fill-rule:nonzero;"/>
            </g>
        </g>
        <g transform="matrix(1,0,0,1,2160,1215)">
            <g transform="matrix(19.8699,-12.1427,-12.1427,-19.8699,1260.38,824.927)">
                <path d="M-0.053,0.017C-0.09,-0.247 0.985,-0.247 0.989,0.013C0.989,0.055 0.962,0.09 0.915,0.118C0.683,0.26 -0.023,0.237 -0.053,0.017Z" style="fill:url(#_Linear8);fill-rule:nonzero;"/>
            </g>
        </g>
        <g transform="matrix(1,0,0,1,2160,1215)">
            <g transform="matrix(-6.79929,27.8015,27.8015,6.79929,1267.47,742.685)">
                <path d="M1.031,-0.003C1.029,0.21 -0.065,0.223 -0.03,0.015C-0.029,0.013 -0.029,0.012 -0.029,0.01C0.019,-0.184 1.033,-0.215 1.031,-0.003Z" style="fill:url(#_Linear9);fill-rule:nonzero;"/>
            </g>
        </g>
        <g transform="matrix(1,0,0,1,2160,1215)">
            <g transform="matrix(6.30893,-6.39167,-6.39167,-6.30893,1246.62,782.102)">
                <path d="M0.814,1.737C0.182,1.578 0.129,-1.704 0.815,-1.641C1.428,-1.584 1.474,1.199 1.004,1.674C0.948,1.731 0.885,1.755 0.814,1.737Z" style="fill:url(#_Linear10);fill-rule:nonzero;"/>
            </g>
        </g>
        <g transform="matrix(1,0,0,1,2160,1215)">
            <g transform="matrix(2.76931,-8.63473,-8.63473,-2.76931,1245.54,807.339)">
                <path d="M0.836,1.542C0.206,1.389 0.109,-1.554 0.794,-1.495C1.316,-1.45 1.451,0.379 1.194,1.179C1.113,1.43 0.994,1.58 0.836,1.542Z" style="fill:url(#_Linear11);fill-rule:nonzero;"/>
            </g>
        </g>
        <g transform="matrix(1,0,0,1,2160,1215)">
            <g transform="matrix(5.66403,6.9851,6.9851,-5.66403,1269.3,772.118)">
                <path d="M0.852,-1.789C1.538,-1.74 1.435,1.729 0.775,1.578C0.721,1.566 0.671,1.53 0.627,1.475C0.155,0.893 0.226,-1.832 0.852,-1.789Z" style="fill:url(#_Linear12);fill-rule:nonzero;"/>
            </g>
        </g>
        <g transform="matrix(1,0,0,1,2160,1215)">
            <g transform="matrix(-1.53402,13.3385,13.3385,1.53402,1278.18,793.552)">
                <path d="M0.146,-0.054C0.368,-0.205 0.659,-0.258 0.968,-0.254C0.71,0.197 0.314,0.606 0.146,0.419C0.097,0.365 0.083,0.275 0.096,0.165C0.103,0.098 0.121,0.024 0.146,-0.054Z" style="fill:url(#_Linear13);fill-rule:nonzero;"/>
            </g>
        </g>
        <g transform="matrix(1,0,0,1,2160,1215)">
            <g transform="matrix(4.61563,7.96986,7.08859,-4.10526,1268.31,793.116)">
                <path d="M0.721,-1.612C1.393,-1.566 1.56,1.547 0.913,1.4C0.808,1.376 0.714,1.272 0.633,1.115C0.239,0.351 0.164,-1.651 0.721,-1.612Z" style="fill:url(#_Linear14);fill-rule:nonzero;"/>
            </g>
        </g>
        <g transform="matrix(1,0,0,1,2160,1215)">
            <g transform="matrix(1,0,0,1,1261.98,838.134)">
                <path d="M0,-73.959C0,-73.959 0.687,-58.206 -1.4,-44.456C-3.488,-30.706 1.778,-7.438 10.345,0" style="fill:none;fill-rule:nonzero;stroke:url(#_Linear15);stroke-width:1.22px;"/>
            </g>
        </g>
        <g transform="matrix(1,0,0,1,2160,1215)">
            <g transform="matrix(0.37565,-8.76505,-9.45741,-0.405322,1248.68,827.032)">
                <path d="M0.942,1.533C0.334,1.39 0.032,-1.585 0.694,-1.532C1.113,-1.498 1.357,-0.209 1.316,0.687C1.292,1.202 1.174,1.588 0.942,1.533Z" style="fill:url(#_Linear16);fill-rule:nonzero;"/>
            </g>
        </g>
        <g transform="matrix(1,0,0,1,2160,1215)">
            <g transform="matrix(9.3538,-10.3725,-10.3725,-9.3538,1273.64,821.088)">
                <path d="M0.414,0.419C0.41,0.414 0.405,0.409 0.4,0.405C0.247,0.249 0.108,0.085 -0.011,-0.068C-0.022,-0.084 -0.034,-0.099 -0.046,-0.114C0.409,-0.282 0.981,-0.34 1.054,-0.107C1.075,-0.041 1.047,0.028 0.986,0.096C0.876,0.218 0.657,0.335 0.414,0.419Z" style="fill:url(#_Linear17);fill-rule:nonzero;"/>
            </g>
        </g>
        <g transform="matrix(1,0,0,1,2160,1215)">
            <g transform="matrix(3.54833,9.55661,7.56056,-2.8072,1270.98,807.185)">
                <path d="M1.036,-1.573C1.644,-1.53 1.174,1.516 0.588,1.382C0.495,1.361 0.428,1.263 0.385,1.116C0.168,0.378 0.529,-1.609 1.036,-1.573Z" style="fill:url(#_Linear18);fill-rule:nonzero;"/>
            </g>
        </g>
        <g transform="matrix(1,0,0,1,2160,1215)">
            <g transform="matrix(-6.79929,27.8015,27.8015,6.79929,1268.93,742.285)">
                <path d="M1.031,-0.003C1.029,0.21 -0.065,0.223 -0.029,0.015C-0.029,0.013 -0.029,0.012 -0.029,0.01C0.019,-0.184 1.033,-0.215 1.031,-0.003Z" style="fill:url(#_Linear19);fill-rule:nonzero;"/>
            </g>
        </g>
        <g transform="matrix(1,0,0,1,2160,1215)">
            <g transform="matrix(1,0,0,1,1274.71,834.137)">
                <path d="M0,52.933L-18.533,52.933C-26.887,52.933 -33.953,46.756 -35.069,38.477L-39.669,4.369C-39.98,2.057 -38.183,0 -35.85,0L17.317,0C19.65,0 21.448,2.057 21.136,4.369L16.537,38.477C15.421,46.756 8.354,52.933 0,52.933" style="fill:rgb(0,51,78);fill-rule:nonzero;"/>
            </g>
        </g>
        <g transform="matrix(1,0,0,1,2160,1215)">
            <g transform="matrix(1,0,0,1,1675.75,455.597)">
                <path d="M0,430.089L-174.693,430.089C-183.803,430.089 -191.187,422.704 -191.187,413.594L-191.187,16.495C-191.187,7.386 -183.803,0 -174.693,0L0,0C9.109,0 16.494,7.386 16.494,16.495L16.494,413.594C16.494,422.704 9.109,430.089 0,430.089" style="fill:rgb(0,51,78);fill-rule:nonzero;"/>
            </g>
        </g>
        <g transform="matrix(1,0,0,1,2160,1215)">
            <g transform="matrix(1,0,0,1,1667.86,473.25)">
                <path d="M0,394.782L-158.904,394.782C-165.633,394.782 -171.088,389.327 -171.088,382.598L-171.088,12.184C-171.088,5.455 -165.633,0 -158.904,0L0,0C6.729,0 12.184,5.455 12.184,12.184L12.184,382.598C12.184,389.327 6.729,394.782 0,394.782" style="fill:rgb(20,83,116);fill-rule:nonzero;"/>
            </g>
        </g>
        <g transform="matrix(1,0,0,1,2160,1215)">
            <g transform="matrix(1,0,0,1,1619.83,467.027)">
                <path d="M0,18.599L-62.852,18.599C-70.052,18.599 -75.888,12.762 -75.888,5.563L-75.888,0L13.036,0L13.036,5.563C13.036,12.762 7.2,18.599 0,18.599" style="fill:rgb(31,24,68);fill-rule:nonzero;"/>
            </g>
        </g>
        <g transform="matrix(1,0,0,1,2160,1215)">
            <g transform="matrix(1,0,0,1,1664.01,496.347)">
                <path d="M0,16.357L-43.523,16.357C-45.842,16.357 -47.722,14.477 -47.722,12.159L-47.722,4.198C-47.722,1.879 -45.842,0 -43.523,0L0,0C2.319,0 4.198,1.879 4.198,4.198L4.198,12.159C4.198,14.477 2.319,16.357 0,16.357" style="fill:rgb(240,239,243);fill-rule:nonzero;"/>
            </g>
        </g>
        <g transform="matrix(1,0,0,1,2160,1215)">
            <g transform="matrix(1,0,0,1,1567.82,528.054)">
                <path d="M0,17.447L-52.822,17.447C-55.142,17.447 -57.021,15.567 -57.021,13.249L-57.021,4.198C-57.021,1.88 -55.142,0 -52.822,0L0,0C2.318,0 4.198,1.88 4.198,4.198L4.198,13.249C4.198,15.567 2.318,17.447 0,17.447" style="fill:rgb(240,239,243);fill-rule:nonzero;"/>
            </g>
        </g>
        <g transform="matrix(1,0,0,1,2160,1215)">
            <g transform="matrix(1,0,0,1,1564.8,501.405)">
                <path d="M0,6.242L-46.771,6.242C-47.979,6.242 -48.958,5.263 -48.958,4.054L-48.958,2.187C-48.958,0.979 -47.979,0 -46.771,0L0,0C1.208,0 2.188,0.979 2.188,2.187L2.188,4.054C2.188,5.263 1.208,6.242 0,6.242" style="fill:rgb(240,239,243);fill-rule:nonzero;"/>
            </g>
        </g>
        <g transform="matrix(1,0,0,1,2160,1215)">
            <g transform="matrix(1,0,0,1,1653.79,555.803)">
                <path d="M0,218.431L-130.766,218.431C-134.672,218.431 -137.839,215.264 -137.839,211.357L-137.839,7.075C-137.839,3.167 -134.672,0 -130.766,0L0,0C3.906,0 7.073,3.167 7.073,7.075L7.073,211.357C7.073,215.264 3.906,218.431 0,218.431" style="fill:rgb(240,239,243);fill-rule:nonzero;"/>
            </g>
        </g>
        <g transform="matrix(1,0,0,1,2160,1215)">
            <g transform="matrix(1,0,0,1,1653.79,794.379)">
                <path d="M0,38.655L-130.766,38.655C-134.672,38.655 -137.839,35.488 -137.839,31.582L-137.839,7.074C-137.839,3.167 -134.672,0 -130.766,0L0,0C3.906,0 7.073,3.167 7.073,7.074L7.073,31.582C7.073,35.488 3.906,38.655 0,38.655" style="fill:rgb(240,239,243);fill-rule:nonzero;"/>
            </g>
        </g>
        <g transform="matrix(1,0,0,1,2160,1215)">
            <g transform="matrix(0,-1,-1,0,1588.4,572.775)">
                <circle cx="-53.083" cy="0" r="53.083" style="fill:none;stroke:white;stroke-width:6px;"/>
            </g>
        </g>
        <g transform="matrix(1,0,0,1,2160,1215)">
            <g transform="matrix(1,0,0,1,1639.13,694.664)">
                <path d="M0,28.289L-101.443,28.289C-105.538,28.289 -108.857,24.97 -108.857,20.875L-108.857,7.414C-108.857,3.319 -105.538,0 -101.443,0L0,0C4.095,0 7.414,3.319 7.414,7.414L7.414,20.875C7.414,24.97 4.095,28.289 0,28.289" style="fill:white;fill-rule:nonzero;"/>
            </g>
        </g>
        <g transform="matrix(1,0,0,1,2160,1215)">
            <g transform="matrix(1,0,0,1,1639.13,734.573)">
                <path d="M0,28.289L-101.443,28.289C-105.538,28.289 -108.857,24.97 -108.857,20.875L-108.857,7.414C-108.857,3.319 -105.538,0 -101.443,0L0,0C4.095,0 7.414,3.319 7.414,7.414L7.414,20.875C7.414,24.97 4.095,28.289 0,28.289" style="fill:white;fill-rule:nonzero;"/>
            </g>
        </g>
        <g transform="matrix(1,0,0,1,2160,1215)">
            <g transform="matrix(1,0,0,1,1414.4,564.542)">
                <path d="M0,-71.49L5.518,-72.629C6.137,-72.756 6.764,-72.451 7.044,-71.885L9.027,-67.891C9.225,-67.495 9.6,-67.216 10.037,-67.139L13.12,-66.609C13.821,-66.488 14.318,-65.858 14.272,-65.148L14.033,-61.487C13.987,-60.777 14.483,-60.147 15.185,-60.026L17.973,-59.546C18.666,-59.427 19.16,-58.808 19.125,-58.106L18.975,-55.091C18.949,-54.585 19.201,-54.104 19.632,-53.838L22.979,-51.769C23.71,-51.317 23.86,-50.316 23.293,-49.67L21.149,-47.224C20.606,-46.604 20.719,-45.649 21.392,-45.173L25.21,-42.469C25.799,-42.053 25.972,-41.256 25.607,-40.633L23.96,-37.816C23.662,-37.308 23.717,-36.669 24.096,-36.219L26.081,-33.86C26.612,-33.229 26.48,-32.277 25.798,-31.813L23.709,-30.398C23.059,-29.958 22.902,-29.067 23.362,-28.431L26.628,-23.918C27.012,-23.386 26.974,-22.659 26.534,-22.172L24.534,-19.954C24.081,-19.45 24.057,-18.693 24.476,-18.162L27.554,-14.259C27.96,-13.744 27.95,-13.014 27.531,-12.51L24.606,-8.987C24.203,-8.502 24.178,-7.804 24.545,-7.291L26.171,-5.016C26.485,-4.577 26.516,-3.994 26.25,-3.523L24.828,-1.011C24.727,-0.832 24.971,-0.402 24.997,0.168C25.014,0.547 25.004,0.915 24.973,1.266" style="fill:none;fill-rule:nonzero;stroke:rgb(0,51,78);stroke-width:8px;"/>
            </g>
        </g>
        <g transform="matrix(1,0,0,1,2160,1215)">
            <g transform="matrix(1,0,0,1,1407.96,564.542)">
                <path d="M0,-71.49L5.519,-72.629C6.137,-72.756 6.764,-72.451 7.045,-71.885L9.027,-67.891C9.225,-67.495 9.6,-67.216 10.037,-67.139L13.121,-66.609C13.822,-66.488 14.319,-65.858 14.272,-65.148L14.033,-61.487C13.987,-60.777 14.484,-60.147 15.186,-60.026L17.973,-59.546C18.666,-59.427 19.161,-58.808 19.126,-58.106L18.975,-55.091C18.95,-54.585 19.202,-54.104 19.633,-53.838L22.979,-51.769C23.711,-51.317 23.86,-50.316 23.294,-49.67L21.15,-47.224C20.606,-46.604 20.719,-45.649 21.393,-45.173L25.211,-42.469C25.8,-42.053 25.972,-41.256 25.607,-40.633L23.96,-37.816C23.663,-37.308 23.718,-36.669 24.097,-36.219L26.082,-33.86C26.613,-33.229 26.481,-32.277 25.798,-31.813L23.709,-30.398C23.06,-29.958 22.902,-29.067 23.362,-28.431L26.628,-23.918C27.013,-23.386 26.974,-22.659 26.534,-22.172L24.535,-19.954C24.082,-19.45 24.057,-18.693 24.477,-18.162L27.554,-14.259C27.96,-13.744 27.951,-13.014 27.531,-12.51L24.607,-8.987C24.203,-8.502 24.179,-7.804 24.546,-7.291L26.171,-5.016C26.485,-4.577 26.517,-3.994 26.25,-3.523L24.828,-1.011C24.727,-0.832 24.972,-0.402 24.997,0.168C25.014,0.547 25.005,0.915 24.973,1.266" style="fill:none;fill-rule:nonzero;stroke:rgb(0,51,78);stroke-width:8px;"/>
            </g>
        </g>
        <g transform="matrix(1,0,0,1,2160,1215)">
            <g transform="matrix(1,0,0,1,1422.34,562.234)">
                <path d="M0,-71.49L5.519,-72.629C6.137,-72.756 6.764,-72.451 7.045,-71.885L9.027,-67.891C9.225,-67.495 9.6,-67.215 10.037,-67.139L13.121,-66.609C13.822,-66.488 14.318,-65.857 14.272,-65.148L14.033,-61.487C13.987,-60.777 14.484,-60.147 15.185,-60.026L17.973,-59.546C18.666,-59.427 19.161,-58.808 19.126,-58.106L18.975,-55.091C18.949,-54.584 19.201,-54.104 19.633,-53.838L22.979,-51.769C23.71,-51.317 23.86,-50.316 23.294,-49.67L21.15,-47.224C20.606,-46.604 20.719,-45.649 21.393,-45.173L25.211,-42.469C25.799,-42.053 25.972,-41.256 25.607,-40.633L23.96,-37.816C23.663,-37.308 23.718,-36.669 24.097,-36.219L26.081,-33.86C26.613,-33.229 26.48,-32.276 25.798,-31.813L23.709,-30.397C23.06,-29.958 22.902,-29.067 23.362,-28.431L26.628,-23.918C27.013,-23.386 26.974,-22.659 26.534,-22.172L24.535,-19.954C24.081,-19.45 24.057,-18.693 24.476,-18.162L27.554,-14.259C27.96,-13.744 27.95,-13.014 27.531,-12.51L24.606,-8.987C24.203,-8.501 24.178,-7.804 24.546,-7.29L26.171,-5.016C26.485,-4.576 26.517,-3.994 26.25,-3.523L24.828,-1.011C24.727,-0.832 24.972,-0.402 24.997,0.169C25.014,0.547 25.004,0.915 24.973,1.266" style="fill:none;fill-rule:nonzero;stroke:rgb(0,51,78);stroke-width:8px;"/>
            </g>
        </g>
        <g transform="matrix(1,0,0,1,2160,1215)">
            <g transform="matrix(10.8829,-59.6381,-59.6381,-10.8829,1412.18,566.061)">
                <path d="M0.666,0.64C0.595,0.644 0.486,0.634 0.367,0.618C0.045,0.576 -0.155,0.246 -0.046,-0.059C-0.017,-0.141 0.001,-0.207 -0.004,-0.235C0.301,-0.543 0.847,-0.483 1.047,-0.179C1.122,-0.055 1.14,0.083 1.117,0.209C1.075,0.439 0.895,0.631 0.666,0.64Z" style="fill:url(#_Linear20);fill-rule:nonzero;"/>
            </g>
        </g>
        <g transform="matrix(1,0,0,1,2160,1215)">
            <g transform="matrix(59.9331,-27.742,-27.742,-59.9331,1367.17,524.692)">
                <path d="M0.424,0.187C0.402,0.16 0.419,0.019 0.405,-0.011C0.364,-0.098 0.356,-0.183 0.356,-0.183C0.349,-0.183 0.342,-0.184 0.335,-0.187C0.311,-0.194 0.292,-0.214 0.283,-0.247C0.298,-0.228 0.314,-0.21 0.331,-0.193C0.489,-0.127 0.425,-0.334 0.425,-0.334C0.425,-0.334 0.489,-0.261 0.533,-0.255C0.572,-0.249 0.55,-0.141 0.563,-0.121C0.576,-0.1 0.609,-0.088 0.644,-0.104C0.679,-0.12 0.698,-0.079 0.719,-0.051C0.731,-0.034 0.735,-0.044 0.743,-0.055C0.748,-0.063 0.754,-0.07 0.766,-0.074C0.797,-0.082 0.806,-0.063 0.806,-0.063C0.964,-0.12 1.057,-0.271 1.041,-0.359C1.05,-0.345 1.059,-0.331 1.068,-0.316C1.151,-0.171 1.126,0.152 0.995,0.224C0.99,0.227 0.983,0.23 0.977,0.233C0.836,0.298 0.535,0.322 0.424,0.187Z" style="fill:url(#_Linear21);fill-rule:nonzero;"/>
            </g>
        </g>
        <g transform="matrix(1,0,0,1,2160,1215)">
            <g transform="matrix(24.8904,15.6657,-15.6657,24.8904,1395.47,547.175)">
                <path d="M-0.081,-0.189C-0.075,-0.187 -0.017,-0.117 0.016,-0.074C0.02,-0.068 0.025,-0.062 0.03,-0.055C0.443,0.117 0.778,0.03 1.003,-0.074L0.977,-0.111L0.946,-0.156C0.706,-0.088 0.376,-0.076 -0.091,-0.192C-0.088,-0.191 -0.084,-0.19 -0.081,-0.189Z" style="fill:url(#_Linear22);fill-rule:nonzero;"/>
            </g>
        </g>
        <g transform="matrix(1,0,0,1,2160,1215)">
            <g transform="matrix(1,0,0,1,1440.49,578.936)">
                <path d="M0,-36.298C-2.199,-26.725 -11.075,-22.364 -16.821,-21.143C-17.374,-21.036 -17.896,-20.949 -18.382,-20.901C-18.614,-20.862 -18.827,-20.833 -19.04,-20.823L-18.963,-19.205L-18.817,-17.141L-18.691,-15.31L-10.853,36.744C-10.339,38.895 -12.752,40.542 -14.573,39.282C-22.78,33.556 -41.026,-9.341 -41.191,-12.238C-41.191,-12.238 -42.034,-16.647 -43.197,-30.048C-43.265,-30.891 -43.333,-31.763 -43.41,-32.674C-43.439,-32.906 -43.459,-33.129 -43.478,-33.352C-43.517,-33.798 -43.575,-34.341 -43.643,-34.893C-43.798,-36.239 -43.991,-37.615 -44.079,-37.722C-44.156,-37.8 -44.224,-37.877 -44.282,-37.964C-47.499,-41.588 -49.107,-44.767 -49.495,-47.306C-49.282,-48.188 -49.03,-49.078 -48.759,-49.95C-48.274,-51.521 -47.315,-52.944 -45.91,-53.808C-43.178,-55.503 -41.695,-54.989 -40.891,-53.972C-40.426,-53.371 -39.485,-53.556 -39.312,-54.302C-38.711,-56.85 -37.597,-60.57 -35.688,-64.185C-33.042,-69.155 -28.875,-73.943 -22.393,-75.241C-21.211,-75.474 -10.872,-76.84 -7.8,-74.689C-5.494,-73.07 -2.035,-66.83 -0.939,-61.608L-0.939,-61.598C-1.065,-60.706 -1.201,-59.834 -1.327,-58.972C-1.628,-56.782 -1.851,-54.67 -1.666,-52.654C-1.327,-48.808 1.551,-42.974 0,-36.298" style="fill:rgb(138,59,0);fill-rule:nonzero;"/>
            </g>
        </g>
        <g transform="matrix(1,0,0,1,2160,1215)">
            <g opacity="0.22">
                <g transform="matrix(1,0,0,1,1421.53,544.046)">
                    <path d="M0,15.687C0,15.687 -16.2,13.797 -24.234,4.837C-24.305,3.998 -24.374,3.126 -24.452,2.216C-24.476,1.984 -24.499,1.758 -24.515,1.541C-24.553,1.089 -24.615,0.544 -24.678,0C-14.848,7.941 -6.486,12.086 0.583,13.992C0.35,14.031 0.132,14.054 -0.078,14.069L0,15.687Z" style="fill-rule:nonzero;"/>
                </g>
            </g>
        </g>
        <g transform="matrix(1,0,0,1,2160,1215)">
            <g transform="matrix(1,0,0,1,1397.5,532.865)">
                <path d="M0,-2.69C0,-2.69 -2.277,-5.378 -3.573,-3.107C-4.87,-0.835 -2.313,2.688 -2.313,2.688L0,-2.69Z" style="fill:none;fill-rule:nonzero;stroke:rgb(0,51,78);stroke-width:8px;"/>
            </g>
        </g>
        <g transform="matrix(1,0,0,1,2160,1215)">
            <g opacity="0.22">
                <g transform="matrix(1,0,0,1,1439.55,504.732)">
                    <path d="M0,12.596L0,12.606C-0.126,13.497 -0.262,14.369 -0.388,15.232C-2.316,12.102 -7.413,4.96 -13.498,4.001C-18.992,3.149 -27.48,6.162 -34.748,10.019C-32.103,5.048 -27.936,0.261 -21.453,-1.038C-20.271,-1.27 -9.933,-2.636 -6.86,-0.485C-4.555,1.133 -1.096,7.373 0,12.596" style="fill-rule:nonzero;"/>
                </g>
            </g>
        </g>
        <g transform="matrix(1,0,0,1,2160,1215)">
            <g transform="matrix(1,0,0,1,1410.71,557.679)">
                <path d="M0,-71.747L-5.245,-73.806C-5.833,-74.036 -6.503,-73.842 -6.875,-73.332L-9.508,-69.733C-9.77,-69.375 -10.187,-69.163 -10.63,-69.163L-13.759,-69.163C-14.471,-69.163 -15.067,-68.626 -15.142,-67.919L-15.527,-64.27C-15.603,-63.563 -16.199,-63.026 -16.91,-63.026L-19.739,-63.026C-20.442,-63.026 -21.035,-62.501 -21.12,-61.803L-21.482,-58.806C-21.544,-58.303 -21.873,-57.872 -22.344,-57.683L-25.993,-56.212C-26.79,-55.891 -27.107,-54.93 -26.659,-54.196L-24.962,-51.423C-24.531,-50.719 -24.804,-49.798 -25.549,-49.442L-29.77,-47.426C-30.421,-47.115 -30.727,-46.358 -30.473,-45.683L-29.327,-42.628C-29.12,-42.077 -29.283,-41.456 -29.732,-41.076L-32.09,-39.09C-32.721,-38.558 -32.752,-37.597 -32.157,-37.024L-30.339,-35.274C-29.773,-34.73 -29.77,-33.826 -30.331,-33.278L-34.315,-29.384C-34.784,-28.926 -34.869,-28.202 -34.52,-27.647L-32.926,-25.122C-32.563,-24.549 -32.668,-23.799 -33.171,-23.346L-36.866,-20.022C-37.354,-19.583 -37.47,-18.863 -37.142,-18.294L-34.857,-14.327C-34.542,-13.779 -34.636,-13.088 -35.085,-12.644L-37.072,-10.68C-37.457,-10.299 -37.587,-9.729 -37.403,-9.221L-36.429,-6.504C-36.359,-6.309 -36.526,-5.874 -36.796,-5.37C-37.599,-3.865 -37.159,-1.996 -35.766,-1.012L-35.604,2.289" style="fill:none;fill-rule:nonzero;stroke:rgb(0,51,78);stroke-width:8px;"/>
            </g>
        </g>
        <g transform="matrix(1,0,0,1,2160,1215)">
            <g transform="matrix(1,0,0,1,1419.87,563.012)">
                <path d="M0,-69.565L-8.868,-72.714C-9.456,-72.945 -10.125,-72.751 -10.498,-72.241L-13.13,-68.642C-13.392,-68.284 -13.809,-68.072 -14.252,-68.072L-17.382,-68.072C-18.093,-68.072 -18.689,-67.535 -18.765,-66.828L-19.15,-63.179C-19.225,-62.472 -19.821,-61.935 -20.533,-61.935L-23.362,-61.935C-24.065,-61.935 -24.658,-61.41 -24.742,-60.711L-25.105,-57.714C-25.166,-57.211 -25.496,-56.781 -25.966,-56.591L-29.615,-55.121C-30.413,-54.799 -30.73,-53.838 -30.281,-53.105L-28.584,-50.332C-28.153,-49.628 -28.427,-48.707 -29.171,-48.351L-33.393,-46.335C-34.044,-46.024 -34.349,-45.267 -34.096,-44.591L-32.95,-41.537C-32.743,-40.986 -32.905,-40.365 -33.355,-39.985L-35.712,-37.999C-36.343,-37.466 -36.375,-36.505 -35.78,-35.933L-33.961,-34.183C-33.396,-33.639 -33.393,-32.735 -33.954,-32.187L-37.938,-28.293C-38.407,-27.835 -38.492,-27.111 -38.142,-26.556L-36.548,-24.031C-36.187,-23.458 -36.29,-22.708 -36.794,-22.254L-40.489,-18.931C-40.978,-18.492 -41.092,-17.772 -40.765,-17.203L-38.48,-13.236C-38.165,-12.688 -38.258,-11.997 -38.708,-11.553L-40.695,-9.588C-41.08,-9.208 -41.209,-8.638 -41.026,-8.129L-40.052,-5.413C-39.982,-5.218 -40.149,-4.783 -40.418,-4.279C-41.222,-2.774 -40.782,-0.905 -39.388,0.08L-39.227,3.38" style="fill:none;fill-rule:nonzero;stroke:rgb(0,51,78);stroke-width:8px;"/>
            </g>
        </g>
        <g transform="matrix(1,0,0,1,2160,1215)">
            <g transform="matrix(1,0,0,1,1403.91,557.428)">
                <path d="M0,-67.397L-5.245,-69.455C-5.833,-69.685 -6.502,-69.491 -6.875,-68.981L-9.507,-65.382C-9.769,-65.024 -10.186,-64.813 -10.629,-64.813L-13.759,-64.813C-14.47,-64.813 -15.066,-64.276 -15.142,-63.568L-15.527,-59.92C-15.602,-59.212 -16.198,-58.676 -16.91,-58.676L-19.738,-58.676C-20.442,-58.676 -21.034,-58.151 -21.119,-57.453L-21.482,-54.455C-21.543,-53.952 -21.873,-53.522 -22.343,-53.333L-25.992,-51.861C-26.79,-51.54 -27.107,-50.579 -26.658,-49.845L-24.961,-47.072C-24.53,-46.369 -24.804,-45.447 -25.548,-45.091L-29.77,-43.076C-30.421,-42.765 -30.726,-42.007 -30.473,-41.333L-29.326,-38.277C-29.12,-37.726 -29.282,-37.105 -29.732,-36.726L-32.089,-34.739C-32.72,-34.207 -32.751,-33.246 -32.157,-32.673L-30.338,-30.923C-29.772,-30.379 -29.77,-29.476 -30.331,-28.927L-34.314,-25.034C-34.784,-24.576 -34.869,-23.851 -34.519,-23.297L-32.925,-20.771C-32.563,-20.199 -32.667,-19.449 -33.171,-18.996L-36.866,-15.671C-37.354,-15.233 -37.469,-14.512 -37.142,-13.944L-34.857,-9.976C-34.542,-9.429 -34.635,-8.738 -35.084,-8.293L-37.072,-6.329C-37.457,-5.949 -37.586,-5.379 -37.403,-4.87L-36.429,-2.154C-36.359,-1.959 -36.526,-1.523 -36.795,-1.019C-37.327,-0.023 -34.426,1.335 -33.951,2.288" style="fill:none;fill-rule:nonzero;stroke:rgb(0,51,78);stroke-width:8px;"/>
            </g>
        </g>
        <g transform="matrix(1,0,0,1,2160,1215)">
            <g transform="matrix(1,0,0,1,1404.73,550.089)">
                <path d="M0,-63.79L-5.052,-66.284C-5.618,-66.563 -6.302,-66.427 -6.717,-65.95L-9.644,-62.587C-9.935,-62.252 -10.368,-62.076 -10.81,-62.114L-13.928,-62.379C-14.637,-62.438 -15.276,-61.954 -15.411,-61.256L-16.104,-57.653C-16.238,-56.954 -16.878,-56.47 -17.587,-56.53L-20.405,-56.769C-21.106,-56.829 -21.741,-56.355 -21.885,-55.667L-22.5,-52.711C-22.603,-52.215 -22.968,-51.814 -23.452,-51.665L-27.213,-50.508C-28.034,-50.255 -28.432,-49.324 -28.047,-48.556L-26.59,-45.648C-26.221,-44.911 -26.57,-44.016 -27.342,-43.725L-31.719,-42.072C-32.394,-41.818 -32.762,-41.09 -32.566,-40.395L-31.684,-37.254C-31.524,-36.687 -31.738,-36.082 -32.219,-35.742L-34.734,-33.962C-35.408,-33.485 -35.521,-32.53 -34.977,-31.91L-33.313,-30.013C-32.796,-29.423 -32.868,-28.521 -33.474,-28.022L-37.773,-24.479C-38.279,-24.062 -38.425,-23.349 -38.123,-22.767L-36.748,-20.115C-36.437,-19.514 -36.604,-18.775 -37.144,-18.366L-41.106,-15.366C-41.63,-14.971 -41.805,-14.263 -41.527,-13.668L-39.586,-9.521C-39.318,-8.95 -39.47,-8.269 -39.955,-7.864L-42.102,-6.074C-42.517,-5.728 -42.694,-5.172 -42.555,-4.649L-41.813,-1.859C-41.76,-1.66 -42.105,-1.307 -42.274,-0.761C-42.95,1.425 -44.165,2.61 -43.173,2.773" style="fill:none;fill-rule:nonzero;stroke:rgb(0,51,78);stroke-width:8px;"/>
            </g>
        </g>
        <g transform="matrix(1,0,0,1,2160,1215)">
            <g transform="matrix(1,0,0,1,1382.39,486.412)">
                <path d="M0,70.021L0.912,63.088C0.938,62.888 -2.244,63.814 -2.425,63.723L-5.087,59.699C-5.397,59.542 -5.44,59.116 -5.167,58.9L1.408,53.714C1.607,53.557 1.648,53.272 1.501,53.065L-0.461,50.307C-0.579,50.14 -0.578,49.917 -0.459,49.751L3.07,44.862C3.162,44.734 3.186,44.569 3.131,44.42L1.393,39.647C1.324,39.46 1.379,39.251 1.53,39.122L4.409,36.654C4.565,36.52 4.618,36.301 4.54,36.111L2.533,31.239C2.459,31.058 2.503,30.85 2.644,30.714L5.594,27.875C5.782,27.694 5.789,27.394 5.608,27.205L4.222,25.747C4.029,25.544 4.052,25.22 4.271,25.046L7.896,22.157C8.083,22.007 8.13,21.742 8.005,21.537L6.378,18.873C6.184,18.555 6.412,18.148 6.784,18.148L10.077,18.148C10.313,18.148 10.512,17.978 10.548,17.746L11.127,14.061C11.163,13.83 11.363,13.659 11.598,13.659L15.722,13.659C16.021,13.659 16.246,13.386 16.189,13.092L15.601,10.026C15.544,9.732 15.769,9.459 16.067,9.459L20.345,9.459C20.607,9.459 20.82,9.247 20.82,8.984L20.82,5.841C20.82,5.579 21.034,5.365 21.297,5.365L24.66,5.365C24.924,5.365 25.137,5.152 25.137,4.889L25.137,1.376C25.137,1.114 29.271,0 29.535,0L36.344,3.166" style="fill:none;fill-rule:nonzero;stroke:rgb(0,51,78);stroke-width:8px;"/>
            </g>
        </g>
        <g transform="matrix(1,0,0,1,2160,1215)">
            <g transform="matrix(1,0,0,1,1409.87,561.046)">
                <path d="M0,-69.015L-8.743,-60.095C-9.217,-59.568 -9.272,-58.787 -8.879,-58.199C-8.371,-57.437 -8.63,-56.403 -9.438,-55.971L-12.296,-54.441C-13.035,-54.045 -13.33,-53.133 -12.953,-52.385C-12.626,-51.733 -10.507,-48.426 -10.551,-48.19C-10.643,-47.705 -15.952,-46.603 -16.303,-46.119C-16.523,-45.813 -16.092,-44.009 -15.742,-42.718C-15.535,-41.953 -15.94,-41.158 -16.68,-40.87L-17.987,-40.365C-18.584,-40.134 -18.978,-39.559 -18.978,-38.919L-18.978,-33.975C-18.978,-33.676 -19.061,-33.387 -19.224,-33.137C-19.732,-32.352 -20.915,-30.588 -21.659,-29.968C-22.435,-29.323 -21.97,-26.398 -21.753,-25.251C-21.694,-24.942 -21.734,-24.622 -21.863,-24.335L-23.082,-21.625C-23.207,-21.346 -23.247,-21.036 -23.196,-20.733L-22.083,-14.093C-22.019,-13.709 -22.101,-13.315 -22.313,-12.989L-23.857,-10.625C-24.103,-10.25 -24.174,-9.787 -24.052,-9.357L-22.555,-4.043C-22.4,-3.498 -22.557,-2.913 -22.96,-2.517L-25.522,0" style="fill:none;fill-rule:nonzero;stroke:rgb(0,51,78);stroke-width:8px;"/>
            </g>
        </g>
        <g transform="matrix(1,0,0,1,2160,1215)">
            <g transform="matrix(1,0,0,1,1389.88,495.099)">
                <path d="M0,66.397L2.563,63.88C2.966,63.484 3.122,62.898 2.968,62.353L1.471,57.041C1.349,56.61 1.42,56.147 1.665,55.772L3.209,53.409C3.422,53.083 3.504,52.688 3.439,52.304L2.326,45.665C2.275,45.362 2.315,45.051 2.44,44.772L3.659,42.062C3.788,41.775 3.828,41.456 3.77,41.146C3.553,40 3.088,37.075 3.863,36.429C4.607,35.808 5.79,34.045 6.299,33.26C6.462,33.01 6.545,32.721 6.545,32.422L6.545,27.478C6.545,26.838 6.938,26.263 7.535,26.033L8.843,25.526C9.587,25.238 9.972,24.434 9.775,23.661C9.454,22.391 11.837,22.745 12.057,22.441C12.407,21.957 13.844,21.133 14.92,18.226C15.004,18.001 12.896,14.664 12.569,14.012C12.192,13.264 12.487,12.351 13.227,11.957L16.085,10.426C16.893,9.995 17.151,8.96 16.644,8.199C16.25,7.61 16.306,6.83 16.779,6.302L20.993,5.813L23.08,2.442C23.777,2.108 24.548,2.021 25.276,2.165C26.629,2.432 28.026,2.37 29.258,1.749L32.724,0C33.555,0.713 30.656,5.518 31.728,5.29L32.229,5.183C33.774,4.853 35.35,5.599 36.075,7.003L36.165,7.177" style="fill:none;fill-rule:nonzero;stroke:rgb(0,51,78);stroke-width:8px;"/>
            </g>
        </g>
        <g transform="matrix(1,0,0,1,2160,1215)">
            <g transform="matrix(1,0,0,1,1412.84,552.918)">
                <path d="M0,-67.152C0,-67.152 5.91,-69.133 8.343,-68.823C10.776,-68.512 14.609,-64.624 14.879,-63.983L15.662,-62.128C15.836,-61.716 16.161,-61.388 16.571,-61.213C17.108,-60.981 17.492,-60.494 17.591,-59.918L15.173,-56.561C15.315,-55.732 18.743,-56.804 19.584,-56.804L20.385,-56.804C20.881,-56.804 21.353,-56.591 21.681,-56.219C22.567,-55.214 24.267,-53.234 24.193,-52.898C24.15,-52.703 23.718,-52.234 23.237,-51.763C22.506,-51.046 22.562,-49.846 23.356,-49.199C24.235,-48.482 25.289,-47.739 25.874,-47.746C27,-47.76 27.603,-44.515 27.256,-44.347C24.998,-43.255 28.987,-41.414 29.795,-40.13C30.067,-39.697 30.135,-39.169 29.977,-38.681C29.692,-37.802 29.281,-36.444 29.38,-36.208C29.484,-35.96 30.99,-33.478 31.88,-32.02C32.267,-31.386 32.202,-30.581 31.726,-30.012L29.619,-27.504C29.163,-26.961 29.085,-26.194 29.422,-25.571L33.783,-23.506C33.968,-23.165 31.486,-21.47 31.42,-21.089L30.632,-16.546C30.58,-16.251 30.606,-15.947 30.708,-15.665L32.267,-11.334C32.431,-10.877 32.396,-10.371 32.168,-9.941L30.868,-7.48C30.785,-7.322 30.678,-7.177 30.55,-7.052L29.43,-5.955C28.651,-5.191 28.765,-3.906 29.666,-3.292L29.795,1.981" style="fill:none;fill-rule:nonzero;stroke:rgb(0,51,78);stroke-width:8px;"/>
            </g>
        </g>
        <g transform="matrix(1,0,0,1,2160,1215)">
            <g transform="matrix(1,0,0,1,1419.87,539.349)">
                <path d="M0,-45.185L5.145,-50.519C5.222,-50.579 5.295,-50.642 5.363,-50.711C5.713,-51.071 6.962,-52.298 7.305,-51.909C7.535,-51.647 8.73,-51.813 9.703,-52C10.506,-52.156 11.32,-51.805 11.759,-51.115L12.458,-50.013C12.616,-49.763 12.829,-49.552 13.079,-49.394L15.85,-47.656C16.24,-47.411 16.533,-47.038 16.679,-46.6L17.522,-44.063C17.653,-43.669 17.903,-43.328 18.238,-43.083L20.077,-41.746C20.225,-41.638 20.357,-41.51 20.47,-41.367L21.698,-39.803C21.958,-39.472 22.106,-39.068 22.122,-38.648L22.181,-37.018C22.215,-36.084 22.896,-35.299 23.815,-35.135C24.987,-34.925 25.713,-33.739 25.365,-32.601L25.137,-31.847C24.892,-31.043 25.18,-30.172 25.854,-29.672L28.014,-28.074C28.708,-27.56 28.99,-26.657 28.713,-25.839L28.575,-25.433C28.312,-24.659 28.552,-23.802 29.177,-23.276L31.368,-21.43C32.181,-20.746 32.312,-19.542 31.664,-18.701L30.342,-16.978C29.679,-16.114 29.834,-14.877 30.69,-14.206L30.894,-14.045C31.51,-13.562 31.783,-12.761 31.594,-12.001L30.996,-9.614C30.793,-8.801 31.121,-7.949 31.816,-7.482L32.257,-7.187C33.175,-6.571 33.414,-5.324 32.788,-4.413L30.713,-1.389C30.354,-0.868 30.267,-0.206 30.476,0.392L31.539,3.427C31.565,3.503 31.587,3.58 31.604,3.659L32.361,7.113" style="fill:none;fill-rule:nonzero;stroke:rgb(0,51,78);stroke-width:8px;"/>
            </g>
        </g>
        <g transform="matrix(1,0,0,1,2160,1215)">
            <g transform="matrix(1,0,0,1,1357.09,501.188)">
                <path d="M0,41.269L4.959,40.104C5.375,40.006 5.728,39.732 5.924,39.352L7.752,35.818C8.103,35.138 8.919,34.844 9.623,35.143L10.239,35.406C11.317,35.864 12.471,34.931 12.247,33.781L11.21,28.444C10.995,27.339 12.057,26.416 13.121,26.782L14.834,27.371C15.752,27.686 16.717,27.037 16.77,26.068L16.982,22.202C17.033,21.278 17.918,20.632 18.812,20.867L19.833,21.133C20.604,21.334 21.394,20.883 21.61,20.117L23.316,14.095C23.531,13.338 24.306,12.887 25.069,13.073L27.074,13.56C27.891,13.759 28.705,13.231 28.857,12.405L29.847,7.042C30.04,5.996 31.252,5.499 32.125,6.111L35.44,8.433C35.723,8.631 36.061,8.723 36.404,8.693C38.286,8.531 44.433,7.84 43.339,5.788C42.353,3.936 45.806,8.576 47.645,9.69C47.943,9.872 49.133,9.644 50.253,9.324C51.538,8.956 52.544,7.953 52.914,6.667L53.108,5.994C53.397,4.993 53.989,4.122 54.74,3.398C56.013,2.173 57.049,0.293 58.88,0.464C60.21,0.589 62.388,2.72 63.604,2.166L69.161,0" style="fill:none;fill-rule:nonzero;stroke:rgb(0,51,78);stroke-width:8px;"/>
            </g>
        </g>
        <g transform="matrix(1,0,0,1,2160,1215)">
            <g transform="matrix(1,0,0,1,1349.36,492.392)">
                <path d="M0,41.369L0.233,36.832C0.273,36.054 0.71,35.348 1.39,34.966L2.614,34.275C3.479,33.789 3.928,32.799 3.726,31.827L3.042,28.556C2.707,26.949 4.131,25.526 5.738,25.862L6.378,25.997C7.867,26.308 9.237,25.099 9.113,23.583L8.949,21.579C8.842,20.268 9.864,19.14 11.179,19.117L11.636,19.109C12.687,19.092 13.587,18.358 13.817,17.333C14.363,14.914 15.335,10.797 15.704,10.422C16.025,10.096 18.429,10.834 20.247,11.456C21.393,11.848 22.639,11.279 23.092,10.156C24.024,7.845 25.602,4.451 26.669,4.878C27.643,5.267 30.364,7.516 32.347,9.22C33.485,10.198 35.24,9.827 35.885,8.471L37.521,5.032C38.15,3.709 39.848,3.316 40.994,4.229L44.659,7.146C45.711,7.983 47.255,7.731 47.986,6.604L50.633,2.528C51.232,1.604 52.407,1.243 53.422,1.668L58.877,3.953C59.182,4.08 59.857,3.123 60.559,2.017C61.593,0.385 63.811,0 65.33,1.193L66.607,2.196" style="fill:none;fill-rule:nonzero;stroke:rgb(0,51,78);stroke-width:8px;"/>
            </g>
        </g>
        <g transform="matrix(1,0,0,1,2160,1215)">
            <g transform="matrix(1,0,0,1,1356.38,498.462)">
                <path d="M0,41.487L-0.055,36.945C-0.064,36.165 0.326,35.434 0.98,35.008L2.159,34.242C2.99,33.701 3.376,32.684 3.112,31.728L2.224,28.507C1.787,26.924 3.118,25.414 4.742,25.648L5.39,25.741C6.896,25.958 8.187,24.664 7.967,23.158L7.676,21.169C7.485,19.868 8.434,18.676 9.745,18.57L10.2,18.534C11.247,18.449 12.099,17.667 12.264,16.63C12.654,14.182 13.363,10.003 13.709,9.605C14.009,9.259 16.452,9.842 18.306,10.348C19.472,10.666 20.682,10.028 21.062,8.881C21.846,6.514 23.206,3.018 24.3,3.377C25.298,3.705 28.161,5.781 30.248,7.354C31.445,8.258 33.169,7.769 33.726,6.378L35.14,2.842C35.684,1.482 37.353,0.982 38.555,1.82L43.072,2.695C44.175,3.464 49.944,1.172 50.604,0" style="fill:none;fill-rule:nonzero;stroke:rgb(0,51,78);stroke-width:8px;"/>
            </g>
        </g>
        <g transform="matrix(1,0,0,1,2160,1215)">
            <g transform="matrix(1,0,0,1,1458.25,495.205)">
                <path d="M0,63.834L-3.908,62.184C-4.25,61.927 -4.987,60.837 -4.65,59.693C-4.312,58.55 1.193,54.498 1.193,54.498C1.146,53.734 0.518,53.137 -0.248,53.127L-0.917,53.119C-2.09,53.105 -2.769,51.786 -2.101,50.823L0.998,46.356C1.64,45.432 1.04,44.159 -0.082,44.065L-1.887,43.914C-2.854,43.833 -3.476,42.85 -3.134,41.941L-1.771,38.317C-1.446,37.451 -1.996,36.505 -2.909,36.358L-3.95,36.191C-4.736,36.065 -5.277,35.334 -5.168,34.546L-4.304,28.347C-4.195,27.567 -4.723,26.843 -5.497,26.705L-7.527,26.344C-8.354,26.196 -8.888,25.385 -8.695,24.567L-7.44,19.261C-7.195,18.225 -8.105,17.282 -9.149,17.49L-13.12,18.281C-13.456,18.349 -13.799,18.299 -14.1,18.135C-15.749,17.233 -21.114,14.118 -19.284,12.678C-17.635,11.381 -23.06,13.968 -24.134,12.105C-26.062,8.76 -29.564,8.454 -29.821,7.85L-28.318,4.981C-28.475,4.614 -32.043,1.185 -32.416,1.043L-38.652,0" style="fill:none;fill-rule:nonzero;stroke:rgb(0,51,78);stroke-width:8px;"/>
            </g>
        </g>
        <g transform="matrix(1,0,0,1,2160,1215)">
            <g transform="matrix(1,0,0,1,1461.92,488.425)">
                <path d="M0,30.783C-0.001,30.333 -1.725,27.78 -3.603,27.618C-4.786,27.516 -5.681,26.51 -5.646,25.319C-5.572,22.867 -5.65,19.185 -6.777,19.145C-7.806,19.109 -9.29,17.63 -11.741,18.376C-12.375,18.568 -12.711,17.87 -12.892,16.909C-13.212,15.208 -15.005,14.235 -16.566,14.967L-16.583,14.973C-16.626,13.532 -17.996,12.505 -19.385,12.871L-23.826,14.041C-25.101,14.377 -26.388,13.537 -26.601,12.232L-27.37,7.511C-27.545,6.441 -28.456,5.648 -29.536,5.628L-35.334,5.518C-35.658,5.512 -35.888,4.382 -36.082,3.108C-36.367,1.227 -38.207,0 -40.042,0.471L-41.584,0.866" style="fill:none;fill-rule:nonzero;stroke:rgb(0,51,78);stroke-width:8px;"/>
            </g>
        </g>
        <g transform="matrix(1,0,0,1,2160,1215)">
            <g transform="matrix(1,0,0,1,1459.58,495.765)">
                <path d="M0,59.923L1.88,55.787C2.203,55.077 2.14,54.251 1.712,53.599L0.942,52.422C0.398,51.592 0.455,50.506 1.082,49.737L3.193,47.147C4.23,45.874 3.62,43.955 2.039,43.515L1.409,43.34C-0.057,42.932 -0.718,41.228 0.091,39.938L1.158,38.235C1.856,37.12 1.469,35.648 0.311,35.023L-0.091,34.806C-1.016,34.307 -1.479,33.248 -1.213,32.232C-0.585,29.834 0.449,25.723 0.294,25.221C0.158,24.783 -2.313,24.333 -4.213,24.049C-5.408,23.87 -6.259,22.799 -6.145,21.596C-5.909,19.114 -5.746,15.366 -6.892,15.254C-7.937,15.152 -11.394,15.899 -13.938,16.498C-15.397,16.842 -16.778,15.702 -16.728,14.203L-16.598,10.399C-16.548,8.934 -17.874,7.804 -19.312,8.087L-23.799,7.069C-25.117,7.328 -31.826,0 -36.095,3.426" style="fill:none;fill-rule:nonzero;stroke:rgb(0,51,78);stroke-width:8px;"/>
            </g>
        </g>
        <g transform="matrix(1,0,0,1,2160,1215)">
            <g transform="matrix(1,0,0,1,1376.54,847.117)">
                <path d="M0,38.068C0.838,39.717 16.009,35.628 16.009,35.628C16.009,35.628 15.879,35.059 15.661,34.106L11.305,15.075C10.878,6.644 12.513,-1.649 12.513,-1.649C8.003,0.763 -1.791,-0.978 -1.791,-0.978C-1.791,-0.978 -0.878,5.438 -1.93,7.519C-2.113,7.883 -2.275,8.381 -2.408,8.964C-3.026,11.655 -3.039,16.222 -2.522,19.004C-2.123,21.149 -1.557,27.526 -0.985,32.357L-0.982,32.366C-0.643,35.177 -0.306,37.457 0,38.068" style="fill:rgb(138,59,0);fill-rule:nonzero;"/>
            </g>
        </g>
        <g transform="matrix(1,0,0,1,2160,1215)">
            <g transform="matrix(1,0,0,1,1375.3,856.998)">
                <path d="M0,21.558L0.003,21.567C0.098,21.905 0.184,22.198 0.256,22.476C-0.315,17.645 -0.882,11.268 -1.281,9.122C-1.798,6.341 -1.785,1.774 -1.167,-0.918C-2.421,0.364 -3.4,2.382 -3.313,4.811C-3.197,8.134 -1.188,17.247 0,21.558" style="fill:rgb(238,111,87);fill-rule:nonzero;"/>
            </g>
        </g>
        <g transform="matrix(1,0,0,1,2160,1215)">
            <g transform="matrix(1,0,0,1,1375.21,881.964)">
                <path d="M0,6.13C1.437,10.403 7.887,14.449 13.234,13.686C18.197,12.973 21.825,5.819 16.992,-0.741C17.21,0.212 17.34,0.78 17.34,0.78C17.34,0.78 2.169,4.87 1.331,3.221C1.025,2.609 0.688,0.33 0.349,-2.481L0.346,-2.49C0.273,-2.768 -0.364,-7.982 -0.46,-8.319C-0.964,-5.213 -0.804,3.746 0,6.13" style="fill:rgb(238,111,87);fill-rule:nonzero;"/>
            </g>
        </g>
        <g transform="matrix(1,0,0,1,2160,1215)">
            <g transform="matrix(1,0,0,1,1445.48,848.581)">
                <path d="M0,31.373C0,32.634 -6.723,35.852 -8.462,36.415C-10.193,36.978 -13.589,34.592 -13.446,29.97C-13.312,25.348 -21.572,6.725 -21.993,5.598C-22.304,4.774 -21.556,3.875 -21.136,3.464C-20.984,3.312 -20.875,3.22 -20.875,3.22L-21.993,-2.386L-6.739,-5.605C-6.739,-5.605 -5.748,3.22 -5.185,5.741C-4.622,8.262 -4.765,12.606 -3.924,17.053C-3.159,21.087 -0.555,28.532 -0.075,30.835C-0.024,31.07 0,31.255 0,31.373" style="fill:rgb(138,59,0);fill-rule:nonzero;"/>
            </g>
        </g>
        <g transform="matrix(1,0,0,1,2160,1215)">
            <g transform="matrix(1,0,0,1,1452.9,853.583)">
                <path d="M0,38.699C-2.243,40.237 -12.463,37.859 -17.371,36.733C-22.271,35.615 -22.548,27.488 -22.833,24.413C-22.959,22.984 -24.641,19.9 -26.657,16.622L-26.657,16.614C-27.96,14.496 -29.389,12.303 -30.641,10.437L-30.641,10.428L-30.649,10.42C-31.153,9.647 -31.632,8.932 -32.053,8.294C-32.741,7.252 -32.96,5.958 -32.641,4.748C-31.708,1.176 -30.011,-0.631 -28.557,-1.538C-28.977,-1.127 -29.725,-0.228 -29.414,0.595C-28.993,1.722 -20.732,20.345 -20.867,24.968C-21.01,29.59 -17.614,31.976 -15.883,31.413C-14.144,30.85 -7.421,27.632 -7.421,26.371C-7.421,26.253 -7.445,26.068 -7.496,25.833C-4.193,29.471 1.815,37.447 0,38.699" style="fill:rgb(238,111,87);fill-rule:nonzero;"/>
            </g>
        </g>
        <g transform="matrix(1,0,0,1,2160,1215)">
            <g transform="matrix(1,0,0,1,1426.64,864.02)">
                <path d="M0,17.892L-1.892,17.892L-4.379,0C-3.127,1.866 -1.698,4.059 -0.396,6.177L-0.396,6.185L0,17.892Z" style="fill:rgb(238,111,87);fill-rule:nonzero;"/>
            </g>
        </g>
        <g transform="matrix(1,0,0,1,2160,1215)">
            <g transform="matrix(1,0,0,1,1438.82,847.966)">
                <path d="M0,-197.752C12.12,-161.393 8.629,-87.568 8.629,-87.568L1.516,0.567L-17.422,0.567C-22.066,-52.72 -15.989,-84.728 -15.989,-84.728L-22.801,-143.214L-32.274,-83.592L-47.91,0.567L-67.226,0.567C-67.793,-13.636 -64.089,-49.14 -56.703,-86.432C-62.384,-119.382 -63.816,-127.42 -61.544,-155.712C-59.271,-184.004 -45.069,-198.319 -45.069,-198.319L0,-197.752Z" style="fill:rgb(0,51,78);fill-rule:nonzero;"/>
            </g>
        </g>
        <g transform="matrix(1,0,0,1,2160,1215)">
            <g transform="matrix(1,0,0,1,1426.7,603.358)">
                <path d="M0,34.061L0,10.498L-13.066,-26.429L-27.837,-37.792C-76.694,-16.771 -83.143,39.471 -83.143,39.471L-65.9,71.853L-53.402,60.491L-61.355,38.903L-42.608,7.374L-35.481,31.915C-23.716,33.472 -11.729,34.773 0,34.061" style="fill:rgb(238,111,87);fill-rule:nonzero;"/>
            </g>
        </g>
        <g transform="matrix(1,0,0,1,2160,1215)">
            <g transform="matrix(1,0,0,1,1444.5,588.562)">
                <path d="M0,24.158L31.056,39.686L34.465,21.317C34.465,21.317 -1.062,0.367 -3.713,-12.51C-17.801,-21.883 -21.21,-24.699 -21.21,-24.699L-21.551,-22.995L-23.104,-15.231L-17.801,25.294L-17.801,48.857C-14.009,48.627 -10.244,48.184 -6.522,47.473C-6.527,44.223 -6.321,41.344 -5.682,40.064C-3.788,36.277 0,24.158 0,24.158" style="fill:rgb(238,111,87);fill-rule:nonzero;"/>
            </g>
        </g>
        <g transform="matrix(1,0,0,1,2160,1215)">
            <g transform="matrix(1,0,0,1,1437.98,655.133)">
                <path d="M0,-19.098C-3.722,-18.387 -7.486,-17.945 -11.278,-17.714C-23.008,-17.002 -34.994,-18.303 -46.76,-19.86L-42.369,-4.742L-11.278,0.762L0.841,-4.919C0.841,-4.919 0.012,-12.724 0,-19.098" style="fill:rgb(238,111,87);fill-rule:nonzero;"/>
            </g>
        </g>
        <g transform="matrix(1,0,0,1,2160,1215)">
            <g transform="matrix(1,0,0,1,1554.07,619.627)">
                <path d="M0,-16.606C-0.715,-18.488 -12.726,-12.381 -12.906,-13.719C-13.013,-14.502 -1.608,-18.627 -2.271,-20.049C-2.934,-21.473 -8.861,-18.494 -12.743,-17.373C-16.626,-16.252 -21.091,-16.344 -22.291,-17.801C-23.492,-19.259 -14.392,-23.217 -16.704,-25.56C-17.883,-26.753 -31.619,-15.528 -31.619,-15.528C-31.619,-15.528 -33.307,-13.904 -33.957,-12.505C-33.988,-12.529 -34.02,-12.569 -34.051,-12.588C-40.584,-7.901 -75.473,-7.723 -75.473,-7.723C-75.473,-7.723 -78.05,-1.794 -78.05,6.165C-59.131,10.147 -30.358,-2.22 -30.358,-2.22C-30.358,-2.22 -30.364,-2.25 -30.366,-2.258C-28.273,-2.004 -23.159,-1.468 -19.373,-1.794C-17.121,-1.989 -13.756,-2.824 -10.61,-3.757C-6.957,-4.84 -2.222,-6.303 -2.909,-7.595C-3.544,-8.79 -9.593,-5.974 -10.121,-6.73C-10.649,-7.487 0.616,-10.951 0.019,-12.518C-0.58,-14.085 -11.361,-9.041 -11.641,-9.772C-11.92,-10.503 0.562,-15.127 0,-16.606" style="fill:rgb(138,59,0);fill-rule:nonzero;"/>
            </g>
        </g>
        <g transform="matrix(1,0,0,1,2160,1215)">
            <g transform="matrix(1,0,0,1,1371.51,697.056)">
                <path d="M0,-31.582L3.918,-24.401L17.253,-16.651L12.519,0C12.519,0 -0.911,-8.21 -2.615,-11.619C-4.319,-15.027 -3.609,-16.448 -3.609,-16.448L-8.781,-23.6L0,-31.582Z" style="fill:rgb(138,59,0);fill-rule:nonzero;"/>
            </g>
        </g>
        <g transform="matrix(1,0,0,1,2160,1215)">
            <g transform="matrix(1,0,0,1,1390.88,662.696)">
                <path d="M0,-9.538C0,-9.538 24.169,-4.269 30.524,-4.08C36.881,-3.891 49.637,-6.809 49.637,-6.809L50.542,-3.103C50.542,-3.103 39.911,0 31.2,-0.1C22.834,-0.197 -2.384,-6.015 -2.384,-6.015L0,-9.538Z" style="fill:rgb(20,83,116);fill-rule:nonzero;"/>
            </g>
        </g>
        <g transform="matrix(1,0,0,1,2160,1215)">
            <g transform="matrix(0.970243,0.242134,0.242134,-0.970243,1400.68,653.893)">
                <path d="M-0.758,-0.081L1.584,-0.081L0.755,-6.145L-1.679,-6.167L-0.758,-0.081Z" style="fill:rgb(0,51,78);fill-rule:nonzero;"/>
            </g>
        </g>
        <g transform="matrix(1,0,0,1,2160,1215)">
            <g transform="matrix(0.900822,-0.434188,-0.434188,-0.900822,1431.8,658.021)">
                <path d="M1.254,0.626L3.596,0.626L2.768,-5.436L0.333,-5.458L1.254,0.626Z" style="fill:rgb(0,51,78);fill-rule:nonzero;"/>
            </g>
        </g>
        <g transform="matrix(1,0,0,1,2160,1215)">
            <g transform="matrix(1,0,0,1,1398.87,613.855)">
                <path d="M0,-48.289L-7.8,-48.289L-7.189,-38.75L4.982,-34.632L3.858,-27.246L27.837,0L14.771,-36.927L0,-48.289Z" style="fill:rgb(238,111,87);fill-rule:nonzero;"/>
            </g>
        </g>
        <g transform="matrix(1,0,0,1,2160,1215)">
            <g transform="matrix(-0.273473,0.96188,0.96188,0.273473,1401.27,695.782)">
                <path d="M-17.748,-16.229L12.515,-16.229L12.734,-13.9L-18.82,-13.637L-17.748,-16.229Z" style="fill:rgb(20,83,116);fill-rule:nonzero;"/>
            </g>
        </g>
        <g transform="matrix(1,0,0,1,2160,1215)">
            <g transform="matrix(-0.534458,-0.845195,-0.845195,0.534458,1425.68,487.007)">
                <path d="M-13.823,9.345C-13.823,9.345 -7.75,3.081 6.243,9.345" style="fill:none;fill-rule:nonzero;stroke:rgb(0,51,78);stroke-width:8px;"/>
            </g>
        </g>
    </g>
    <defs>
        <linearGradient id="_Linear1" x1="0" y1="0" x2="1" y2="0" gradientUnits="userSpaceOnUse" gradientTransform="matrix(1,0,0,-1,0,0.0320223)"><stop offset="0" style="stop-color:rgb(240,242,245);stop-opacity:1"/><stop offset="0.99" style="stop-color:rgb(245,247,248);stop-opacity:1"/><stop offset="1" style="stop-color:rgb(245,247,248);stop-opacity:1"/></linearGradient>
        <linearGradient id="_Linear2" x1="0" y1="0" x2="1" y2="0" gradientUnits="userSpaceOnUse" gradientTransform="matrix(-16.4389,-124.743,124.743,-16.4389,21.7975,0.0671)"><stop offset="0" style="stop-color:rgb(63,61,158);stop-opacity:1"/><stop offset="0.99" style="stop-color:rgb(66,62,159);stop-opacity:1"/><stop offset="1" style="stop-color:rgb(66,62,159);stop-opacity:1"/></linearGradient>
        <linearGradient id="_Linear3" x1="0" y1="0" x2="1" y2="0" gradientUnits="userSpaceOnUse" gradientTransform="matrix(1,-5.55112e-17,-5.55112e-17,-1,0,-0.011709)"><stop offset="0" style="stop-color:rgb(31,24,68);stop-opacity:1"/><stop offset="0.99" style="stop-color:rgb(61,60,153);stop-opacity:1"/><stop offset="1" style="stop-color:rgb(61,60,153);stop-opacity:1"/></linearGradient>
        <linearGradient id="_Linear4" x1="0" y1="0" x2="1" y2="0" gradientUnits="userSpaceOnUse" gradientTransform="matrix(1,0,0,-1,0,-0.0181991)"><stop offset="0" style="stop-color:rgb(31,24,68);stop-opacity:1"/><stop offset="0.99" style="stop-color:rgb(61,60,153);stop-opacity:1"/><stop offset="1" style="stop-color:rgb(61,60,153);stop-opacity:1"/></linearGradient>
        <linearGradient id="_Linear5" x1="0" y1="0" x2="1" y2="0" gradientUnits="userSpaceOnUse" gradientTransform="matrix(1,0,0,-1,0,0.0189266)"><stop offset="0" style="stop-color:rgb(31,24,68);stop-opacity:1"/><stop offset="0.99" style="stop-color:rgb(61,60,153);stop-opacity:1"/><stop offset="1" style="stop-color:rgb(61,60,153);stop-opacity:1"/></linearGradient>
        <linearGradient id="_Linear6" x1="0" y1="0" x2="1" y2="0" gradientUnits="userSpaceOnUse" gradientTransform="matrix(1,5.55112e-17,5.55112e-17,-1,0,0.0212787)"><stop offset="0" style="stop-color:rgb(31,24,68);stop-opacity:1"/><stop offset="0.99" style="stop-color:rgb(61,60,153);stop-opacity:1"/><stop offset="1" style="stop-color:rgb(61,60,153);stop-opacity:1"/></linearGradient>
        <linearGradient id="_Linear7" x1="0" y1="0" x2="1" y2="0" gradientUnits="userSpaceOnUse" gradientTransform="matrix(1,-1.38778e-17,-1.38778e-17,-1,0,-0.0324577)"><stop offset="0" style="stop-color:rgb(31,24,68);stop-opacity:1"/><stop offset="0.99" style="stop-color:rgb(61,60,153);stop-opacity:1"/><stop offset="1" style="stop-color:rgb(61,60,153);stop-opacity:1"/></linearGradient>
        <linearGradient id="_Linear8" x1="0" y1="0" x2="1" y2="0" gradientUnits="userSpaceOnUse" gradientTransform="matrix(1,0,0,-1,0,0.0130414)"><stop offset="0" style="stop-color:rgb(31,24,68);stop-opacity:1"/><stop offset="0.99" style="stop-color:rgb(61,60,153);stop-opacity:1"/><stop offset="1" style="stop-color:rgb(61,60,153);stop-opacity:1"/></linearGradient>
        <linearGradient id="_Linear9" x1="0" y1="0" x2="1" y2="0" gradientUnits="userSpaceOnUse" gradientTransform="matrix(1,5.55112e-17,5.55112e-17,-1,0,0.00728845)"><stop offset="0" style="stop-color:rgb(61,60,153);stop-opacity:1"/><stop offset="0.01" style="stop-color:rgb(61,60,153);stop-opacity:1"/><stop offset="1" style="stop-color:rgb(31,24,68);stop-opacity:1"/></linearGradient>
        <linearGradient id="_Linear10" x1="0" y1="0" x2="1" y2="0" gradientUnits="userSpaceOnUse" gradientTransform="matrix(1,0,0,-1,0,0.0505238)"><stop offset="0" style="stop-color:rgb(224,228,235);stop-opacity:1"/><stop offset="0.99" style="stop-color:rgb(243,246,253);stop-opacity:1"/><stop offset="1" style="stop-color:rgb(243,246,253);stop-opacity:1"/></linearGradient>
        <linearGradient id="_Linear11" x1="0" y1="0" x2="1" y2="0" gradientUnits="userSpaceOnUse" gradientTransform="matrix(1,0,0,-1,0,0.0259699)"><stop offset="0" style="stop-color:rgb(224,228,235);stop-opacity:1"/><stop offset="0.99" style="stop-color:rgb(243,246,253);stop-opacity:1"/><stop offset="1" style="stop-color:rgb(243,246,253);stop-opacity:1"/></linearGradient>
        <linearGradient id="_Linear12" x1="0" y1="0" x2="1" y2="0" gradientUnits="userSpaceOnUse" gradientTransform="matrix(1,5.55112e-17,5.55112e-17,-1,0,-0.102959)"><stop offset="0" style="stop-color:rgb(224,228,235);stop-opacity:1"/><stop offset="0.99" style="stop-color:rgb(243,246,253);stop-opacity:1"/><stop offset="1" style="stop-color:rgb(243,246,253);stop-opacity:1"/></linearGradient>
        <linearGradient id="_Linear13" x1="0" y1="0" x2="1" y2="0" gradientUnits="userSpaceOnUse" gradientTransform="matrix(-0.791273,0.611463,0.611463,0.791273,0.913591,-0.311861)"><stop offset="0" style="stop-color:rgb(187,192,217);stop-opacity:1"/><stop offset="0.01" style="stop-color:rgb(187,192,217);stop-opacity:1"/><stop offset="1" style="stop-color:rgb(214,219,248);stop-opacity:1"/></linearGradient>
        <linearGradient id="_Linear14" x1="0" y1="0" x2="1" y2="0" gradientUnits="userSpaceOnUse" gradientTransform="matrix(1,0,-5.55112e-17,-1,0,-0.103816)"><stop offset="0" style="stop-color:rgb(224,228,235);stop-opacity:1"/><stop offset="0.99" style="stop-color:rgb(243,246,253);stop-opacity:1"/><stop offset="1" style="stop-color:rgb(243,246,253);stop-opacity:1"/></linearGradient>
        <linearGradient id="_Linear15" x1="0" y1="0" x2="1" y2="0" gradientUnits="userSpaceOnUse" gradientTransform="matrix(12.9127,-3.07205,3.07205,12.9127,-3.6975,-34.7448)"><stop offset="0" style="stop-color:rgb(224,228,235);stop-opacity:1"/><stop offset="0.99" style="stop-color:rgb(243,246,253);stop-opacity:1"/><stop offset="1" style="stop-color:rgb(243,246,253);stop-opacity:1"/></linearGradient>
        <linearGradient id="_Linear16" x1="0" y1="0" x2="1" y2="0" gradientUnits="userSpaceOnUse" gradientTransform="matrix(1,0,6.93889e-18,-1,0,0.00294248)"><stop offset="0" style="stop-color:rgb(224,228,235);stop-opacity:1"/><stop offset="0.99" style="stop-color:rgb(243,246,253);stop-opacity:1"/><stop offset="1" style="stop-color:rgb(243,246,253);stop-opacity:1"/></linearGradient>
        <linearGradient id="_Linear17" x1="0" y1="0" x2="1" y2="0" gradientUnits="userSpaceOnUse" gradientTransform="matrix(1,0,0,-1,0,0.0784863)"><stop offset="0" style="stop-color:rgb(187,192,217);stop-opacity:1"/><stop offset="0.01" style="stop-color:rgb(187,192,217);stop-opacity:1"/><stop offset="1" style="stop-color:rgb(214,219,248);stop-opacity:1"/></linearGradient>
        <linearGradient id="_Linear18" x1="0" y1="0" x2="1" y2="0" gradientUnits="userSpaceOnUse" gradientTransform="matrix(1,0,0,-1,0,-0.0937697)"><stop offset="0" style="stop-color:rgb(224,228,235);stop-opacity:1"/><stop offset="0.99" style="stop-color:rgb(243,246,253);stop-opacity:1"/><stop offset="1" style="stop-color:rgb(243,246,253);stop-opacity:1"/></linearGradient>
        <linearGradient id="_Linear19" x1="0" y1="0" x2="1" y2="0" gradientUnits="userSpaceOnUse" gradientTransform="matrix(1,5.55112e-17,5.55112e-17,-1,0,0.00728073)"><stop offset="0" style="stop-color:rgb(230,234,241);stop-opacity:1"/><stop offset="0.99" style="stop-color:rgb(243,246,253);stop-opacity:1"/><stop offset="1" style="stop-color:rgb(243,246,253);stop-opacity:1"/></linearGradient>
        <linearGradient id="_Linear20" x1="0" y1="0" x2="1" y2="0" gradientUnits="userSpaceOnUse" gradientTransform="matrix(1,0,0,-1,0,0.101084)"><stop offset="0" style="stop-color:rgb(32,31,79);stop-opacity:1"/><stop offset="1" style="stop-color:rgb(32,31,79);stop-opacity:1"/></linearGradient>
        <linearGradient id="_Linear21" x1="0" y1="0" x2="1" y2="0" gradientUnits="userSpaceOnUse" gradientTransform="matrix(1,0,0,-1,0,-0.0368038)"><stop offset="0" style="stop-color:rgb(32,31,79);stop-opacity:1"/><stop offset="1" style="stop-color:rgb(32,31,79);stop-opacity:1"/></linearGradient>
        <linearGradient id="_Linear22" x1="0" y1="0" x2="1" y2="0" gradientUnits="userSpaceOnUse" gradientTransform="matrix(1,0,0,-1,0,-0.0745987)"><stop offset="0" style="stop-color:rgb(160,68,0);stop-opacity:1"/><stop offset="1" style="stop-color:rgb(117,50,0);stop-opacity:1"/></linearGradient>
    </defs>
</svg>
